<?xml version="1.0" standalone="no"?>
<!DOCTYPE svg PUBLIC "-//W3C//DTD SVG 20010904//EN"
 "http://www.w3.org/TR/2001/REC-SVG-20010904/DTD/svg10.dtd">
<svg version="1.0" xmlns="http://www.w3.org/2000/svg"
 width="828.000000pt" height="828.000000pt" viewBox="0 0 828.000000 828.000000"
 preserveAspectRatio="xMidYMid meet">
<metadata>
Created by potrace 1.14, written by Peter Selinger 2001-2017
</metadata>
<g transform="translate(0.000000,828.000000) scale(0.100000,-0.100000)"
fill="#000000" stroke="none">
<path d="M0 4140 l0 -4140 2005 0 2005 0 1 23 c1 21 1 21 9 -3 7 -23 8 -23 9
-3 1 12 -4 25 -9 28 -6 4 -8 16 -5 28 5 19 4 19 -9 -3 l-14 -24 -4 24 c-2 18
-8 24 -22 22 -11 -2 -17 1 -14 10 3 7 10 13 16 13 16 0 25 12 17 25 -6 9 -10
9 -16 -1 -6 -11 -9 -10 -14 4 -4 9 0 23 8 31 13 14 16 14 21 -1 6 -14 9 -12
21 11 17 32 20 60 6 52 -5 -3 -11 1 -15 9 -3 8 -1 17 4 20 6 4 10 1 10 -4 0
-6 5 -11 10 -11 6 0 10 7 10 15 0 10 11 16 33 17 46 2 50 3 66 13 10 6 16 4
20 -6 2 -8 9 0 17 21 l12 35 2 -35 c1 -31 2 -33 10 -12 11 26 27 29 33 5 3
-11 5 -7 6 10 0 16 5 26 11 22 5 -3 7 -12 4 -19 -7 -18 11 -28 52 -31 25 -1
34 2 34 14 0 14 2 14 9 1 6 -8 7 -18 4 -24 -4 -5 -1 -6 7 -1 7 4 16 2 21 -6 6
-9 9 -10 9 -2 0 6 -4 15 -10 18 -5 3 -10 11 -10 17 0 6 8 4 18 -5 23 -21 43
-22 36 -2 -4 9 0 15 9 15 8 0 18 -7 21 -16 3 -8 11 -12 17 -9 6 4 8 13 5 20
-8 21 20 38 50 31 21 -6 25 -4 21 8 -4 9 -2 18 3 21 6 4 10 -1 10 -9 0 -9 7
-16 15 -16 9 0 15 9 15 21 0 17 5 20 25 17 14 -3 28 -1 31 4 3 4 8 6 12 4 4
-2 5 17 4 43 -3 36 2 56 18 82 12 19 20 26 16 16 -3 -9 -1 -17 4 -17 5 0 11
15 13 32 4 32 4 32 5 -5 1 -24 6 -36 14 -35 8 2 12 -6 11 -17 -1 -18 -1 -19
11 -3 10 13 15 15 24 6 12 -12 18 14 14 70 -1 17 3 22 14 18 8 -3 17 1 20 9 4
8 10 15 15 15 5 0 4 -10 0 -23 -5 -12 -14 -21 -20 -19 -12 2 -15 -20 -5 -31
12 -12 34 6 34 29 0 13 5 24 10 24 6 0 10 6 10 14 0 7 6 19 14 25 11 9 15 7
20 -12 4 -16 17 -27 41 -34 32 -10 36 -9 47 10 8 16 8 22 -1 25 -16 5 -14 32
3 32 8 0 17 -8 20 -17 5 -12 10 -13 18 -5 8 8 8 15 -2 27 -11 14 -10 17 8 22
12 3 22 13 22 22 0 14 -2 14 -11 1 -8 -12 -10 -11 -7 5 2 11 9 20 16 20 7 0
16 6 21 13 6 10 10 8 14 -9 5 -19 8 -20 21 -9 14 11 16 9 16 -13 0 -14 -6 -28
-12 -31 -10 -5 -10 -7 -1 -12 7 -3 10 -18 8 -37 l-5 -32 11 28 c6 15 14 27 19
27 5 0 16 3 25 6 9 4 15 3 14 -2 -4 -21 2 -24 17 -9 13 13 19 14 25 4 4 -8 11
-10 15 -6 12 12 8 68 -5 77 -9 5 -10 10 -2 14 6 4 16 4 21 1 6 -4 11 9 12 32
1 37 1 37 5 6 3 -20 10 -33 19 -33 16 0 19 -16 4 -25 -21 -13 -9 -24 14 -14
22 10 23 13 9 40 -8 16 -18 31 -24 34 -5 4 -6 17 -3 31 4 14 2 24 -5 24 -6 0
-11 9 -11 21 0 16 4 19 20 14 14 -4 20 -2 20 8 0 9 -5 17 -11 19 -7 2 -9 13
-5 26 4 12 12 20 17 17 5 -4 9 4 9 17 -1 23 -1 23 -25 -5 l-25 -28 0 25 c0 14
5 26 10 26 14 0 12 27 -2 33 -10 4 -10 7 -1 14 7 5 10 24 8 46 -1 20 1 37 6
37 5 0 9 -7 9 -16 0 -8 5 -12 11 -9 7 5 6 12 -4 23 -16 18 -31 88 -29 137 l1
30 -10 -34 c-10 -34 -9 -47 7 -85 5 -12 4 -17 -3 -13 -6 4 -8 -11 -5 -43 2
-28 0 -50 -5 -50 -5 0 -8 29 -7 65 1 36 -2 65 -7 65 -10 0 -11 -15 -11 -100 0
-30 5 -56 11 -58 6 -2 11 -18 11 -35 -1 -29 -2 -30 -12 -12 -6 11 -23 31 -37
44 l-26 25 -3 -27 c-2 -15 -7 -27 -11 -27 -4 0 -6 14 -3 30 3 24 11 32 32 37
27 5 28 8 28 62 0 100 2 111 12 111 5 0 10 17 10 37 0 38 -14 36 -23 -2 -2
-11 -4 5 -3 36 1 38 5 55 12 52 20 -8 28 19 10 33 -13 9 -14 13 -4 17 10 4 10
8 -2 16 -10 7 -17 6 -22 -2 -6 -9 -10 -8 -18 3 -13 19 -13 30 0 30 6 0 10 7
10 15 0 8 -4 15 -10 15 -5 0 -10 6 -10 13 0 16 -38 40 -50 32 -6 -4 -10 3 -10
14 0 11 -5 23 -11 27 -6 3 -9 15 -6 25 3 11 1 19 -4 19 -5 0 -9 -8 -9 -18 0
-40 -15 -31 -25 14 -7 34 -15 48 -29 50 -24 3 -35 21 -29 45 4 13 0 19 -11 19
-9 0 -16 5 -16 11 0 16 -61 68 -75 63 -13 -6 -38 43 -29 57 3 6 -4 5 -16 -3
-18 -10 -24 -10 -27 0 -3 6 -11 12 -18 12 -8 0 -21 10 -30 23 -12 17 -17 19
-24 8 -6 -10 -10 -10 -16 -1 -4 6 1 18 11 25 18 14 18 14 0 15 -17 0 -17 1 -2
25 14 21 14 24 1 19 -8 -4 -15 -12 -15 -19 0 -14 -29 -29 -39 -20 -3 3 1 11 9
16 11 7 6 9 -20 7 -24 -2 -34 1 -32 10 2 14 -15 17 -20 2 -2 -6 -16 -6 -40 1
-27 7 -38 15 -38 29 0 11 -5 20 -11 20 -7 0 -17 8 -24 17 -10 14 -16 15 -28 5
-12 -10 -15 -7 -20 18 -6 27 -27 43 -27 20 0 -5 5 -10 10 -10 17 0 11 -25 -9
-37 -16 -10 -20 -9 -26 10 -5 17 -8 18 -12 7 -14 -35 -43 -39 -43 -6 0 16 -7
27 -20 31 -11 3 -20 11 -20 16 0 6 -4 7 -10 4 -6 -3 -10 3 -10 14 0 12 -5 21
-11 21 -6 0 -9 -7 -5 -15 4 -11 -2 -15 -24 -15 -17 0 -30 -3 -30 -7 0 -5 -11
-9 -24 -9 -17 -1 -26 5 -29 18 -8 28 -31 17 -35 -15 -4 -33 -42 -39 -42 -7 0
27 -18 26 -22 -2 -2 -12 -9 -23 -16 -26 -11 -3 -12 0 -3 16 16 29 15 31 -19
30 -32 -1 -40 -12 -14 -22 30 -11 4 -24 -42 -20 -43 4 -46 3 -41 -16 6 -22 -8
-28 -16 -6 -8 19 -47 28 -47 10 0 -14 -17 -19 -54 -15 -11 1 -23 -3 -26 -9 -7
-12 -69 16 -83 37 -4 6 -18 10 -32 8 -14 -1 -25 2 -25 7 0 5 -9 6 -20 3 -14
-4 -22 -1 -26 10 -4 9 -15 15 -28 13 -13 -1 -34 5 -49 15 -14 9 -35 17 -45 17
-22 0 -72 22 -72 33 0 4 -5 7 -11 7 -5 0 -7 -4 -4 -10 8 -13 -8 -13 -21 0 -9
9 -41 17 -71 19 -7 1 -23 12 -35 24 -13 13 -33 23 -43 21 -11 -2 -25 2 -32 8
-8 6 -16 8 -20 4 -4 -3 -17 3 -29 15 -13 12 -30 19 -38 16 -9 -4 -16 -2 -16 3
0 6 -11 10 -24 10 -13 0 -29 7 -36 15 -7 8 -16 13 -20 10 -5 -3 -15 1 -23 9
-8 8 -17 12 -21 9 -3 -4 -6 -1 -6 6 0 7 -6 11 -14 8 -8 -3 -20 0 -26 8 -6 8
-18 11 -26 8 -8 -3 -14 0 -14 5 0 6 -15 14 -34 18 -19 3 -37 12 -40 20 -3 8
-19 14 -35 14 -16 0 -33 5 -36 10 -4 6 -10 8 -15 5 -12 -8 -43 7 -84 39 -38
31 -104 59 -118 50 -4 -3 -8 0 -8 6 0 6 -7 19 -16 27 -13 14 -17 14 -25 2 -7
-11 -9 -10 -9 4 0 10 -4 16 -9 13 -5 -4 -15 7 -23 24 -12 27 -16 29 -47 24
-27 -5 -37 -3 -49 12 -14 18 -14 18 -7 -1 16 -43 17 -56 5 -70 -7 -8 -20 -15
-30 -15 -14 0 -16 8 -13 48 6 69 9 75 41 67 35 -7 49 8 50 53 1 50 11 72 29
65 11 -4 14 -3 9 6 -4 6 -3 17 2 24 5 7 12 29 16 50 4 20 11 37 16 37 6 0 6 9
0 25 -7 19 -6 23 6 18 10 -4 12 -1 7 13 -5 13 -3 16 10 11 14 -5 17 0 17 28 0
19 -5 35 -11 35 -7 0 -9 11 -5 32 4 18 9 62 11 97 2 35 7 67 12 70 5 3 12 14
16 23 4 11 12 15 22 12 8 -3 15 -1 15 5 0 6 7 8 15 5 10 -4 15 0 15 11 0 13 3
15 13 6 11 -8 19 -5 38 15 13 14 55 41 92 58 59 29 70 31 83 19 12 -13 14 -12
14 0 0 15 19 27 54 34 10 2 26 11 35 21 9 9 25 16 37 14 11 -2 27 4 34 13 8 9
29 15 56 15 25 0 44 5 44 11 0 6 10 9 23 8 12 -1 33 1 47 4 14 4 47 9 75 12
30 3 53 11 58 21 7 12 11 13 24 3 12 -11 18 -9 34 11 10 14 19 21 19 16 0 -5
7 -3 16 4 13 11 16 10 21 -8 8 -33 23 -15 23 28 0 21 5 42 10 45 13 8 13 45
-1 45 -5 0 -8 -4 -4 -9 10 -17 -12 -21 -26 -5 -10 13 -10 17 2 24 12 8 11 11
-5 23 -19 14 -193 16 -235 2 -11 -3 -22 -1 -26 5 -4 6 -15 8 -26 5 -15 -5 -18
-2 -13 12 5 16 4 16 -10 -1 -10 -12 -16 -15 -16 -7 0 8 -6 11 -16 7 -10 -4
-22 1 -30 11 -10 13 -16 15 -22 6 -9 -14 -81 -10 -112 7 -12 6 -46 12 -76 12
-36 0 -54 5 -54 13 0 7 -6 18 -14 24 -12 10 -14 8 -10 -11 2 -13 2 -18 -2 -11
-3 7 -12 9 -20 6 -8 -3 -14 0 -14 6 0 13 -43 33 -80 37 -13 2 -30 10 -36 18
-6 9 -14 13 -17 10 -7 -7 -77 15 -77 25 0 9 -61 34 -77 32 -7 -1 -13 2 -13 6
0 5 -12 10 -27 11 -15 1 -32 7 -37 12 -6 6 -18 10 -28 10 -10 0 -18 7 -18 15
0 9 -6 12 -15 9 -8 -4 -15 -2 -15 4 0 6 -9 8 -20 5 -15 -4 -20 0 -21 13 0 16
-2 15 -9 -3 -11 -27 -25 -29 -40 -5 -8 12 -13 14 -17 4 -4 -10 -8 -10 -21 0
-14 11 -15 10 -8 -7 6 -16 5 -18 -5 -7 -19 18 -26 15 -34 -15 -4 -16 -10 -22
-12 -15 -3 6 -9 9 -15 6 -6 -4 -14 0 -19 7 -6 10 -9 7 -10 -11 l-1 -25 -8 25
c-6 18 -8 20 -9 7 -1 -10 -5 -16 -10 -13 -5 4 -12 0 -14 -6 -3 -8 -6 -5 -6 5
-1 16 -3 17 -16 3 -8 -8 -15 -22 -15 -30 0 -9 -4 -16 -10 -16 -5 0 -10 8 -10
18 0 14 -2 15 -10 2 -8 -13 -10 -12 -10 3 0 11 -8 17 -21 17 -17 0 -20 -5 -17
-25 3 -14 1 -28 -3 -31 -5 -3 -9 7 -10 23 0 23 -2 25 -8 9 -9 -22 -41 -31 -41
-11 0 7 -6 15 -14 18 -15 6 -30 -7 -39 -33 -2 -8 -3 -3 -1 13 2 15 -1 27 -6
27 -6 0 -10 -4 -10 -10 0 -5 -4 -10 -10 -10 -5 0 -10 10 -10 22 0 20 -1 21
-20 3 -20 -18 -20 -17 -20 8 0 15 -4 27 -10 27 -5 0 -11 10 -11 23 -1 16 -2
18 -6 5 -2 -10 -8 -18 -12 -18 -16 0 -51 38 -52 56 -1 11 -4 6 -8 -11 l-6 -30
-14 33 c-10 25 -18 31 -32 27 -13 -4 -19 -1 -19 9 0 15 -15 20 -49 18 -22 -1
-40 29 -41 64 0 17 -7 37 -16 45 -14 11 -14 13 0 21 15 9 12 38 -5 38 -4 0 -6
-7 -3 -15 4 -9 0 -15 -9 -15 -8 0 -18 -7 -21 -16 -11 -29 -16 -9 -7 24 9 30
-2 46 -12 20 -3 -7 -6 -3 -6 9 -1 12 -8 28 -16 37 -9 8 -15 19 -14 23 3 20 -2
24 -16 13 -9 -8 -15 -9 -15 -2 0 6 4 13 8 16 5 3 9 19 10 36 1 27 -2 29 -14
19 -12 -10 -17 -8 -29 7 -8 10 -15 27 -15 36 0 9 -7 24 -16 33 -13 13 -14 21
-6 40 7 15 8 26 2 30 -15 9 -30 -4 -24 -19 3 -8 1 -17 -5 -21 -6 -3 -11 -2
-11 4 0 5 -3 17 -7 27 -4 12 -3 15 5 10 7 -4 12 -1 12 8 0 8 -4 18 -10 21 -5
3 -10 1 -10 -5 0 -6 -5 -8 -11 -5 -6 4 3 17 22 31 18 13 28 24 22 24 -6 0 -14
18 -18 40 -4 22 -16 51 -27 66 -21 26 -36 90 -19 80 5 -3 11 7 14 22 3 15 12
59 21 97 9 39 14 76 11 83 -2 6 0 12 5 12 5 0 9 21 7 48 -2 40 1 48 20 57 16
7 22 20 25 55 2 25 0 47 -4 48 -4 2 -8 8 -8 13 0 6 4 8 9 5 14 -9 21 19 14 57
-3 21 1 45 11 65 9 17 17 41 17 54 1 17 3 18 6 6 2 -10 8 -18 13 -18 15 0 22
20 12 33 -5 7 -7 31 -4 55 3 33 8 42 19 38 10 -4 13 -2 10 8 -3 8 1 17 9 20 9
3 12 10 9 16 -3 5 0 7 8 4 11 -4 17 6 23 38 9 55 6 148 -6 163 -5 6 -5 16 0
25 6 8 10 11 10 5 0 -5 5 -3 10 5 5 8 7 25 4 37 -4 15 -1 25 9 29 9 3 13 12
10 19 -2 8 -1 20 3 27 5 7 10 30 11 51 3 45 25 93 41 89 7 -1 12 5 12 14 0 8
-5 12 -11 8 -6 -3 -4 5 6 19 9 14 18 36 19 49 7 55 18 79 31 68 10 -8 14 -4
19 16 4 15 17 35 29 46 12 11 16 17 10 13 -7 -3 -13 0 -13 7 0 11 -2 10 -9 0
-12 -20 -21 7 -10 33 6 15 8 16 8 4 1 -14 20 -29 38 -29 3 0 2 11 -1 25 -7 28
8 34 22 9 5 -9 13 -15 18 -14 5 1 12 -9 16 -22 5 -20 6 -19 7 9 1 27 4 31 26
28 16 -1 25 3 25 11 0 17 16 18 26 2 5 -7 11 -5 21 8 12 16 15 17 23 4 5 -8
12 -11 17 -7 4 4 2 17 -5 27 -14 23 -15 30 -4 30 4 0 13 -13 20 -29 9 -19 18
-28 28 -24 8 3 14 0 14 -6 0 -9 5 -9 20 -1 11 6 25 8 30 5 6 -3 10 -1 10 4 0
16 36 13 54 -4 16 -17 46 -20 46 -5 0 5 -7 7 -15 4 -8 -4 -15 -1 -15 5 0 6 6
11 13 11 8 0 19 11 25 24 12 27 54 38 91 24 47 -17 100 -59 94 -74 -3 -8 -1
-14 4 -14 6 0 15 -10 21 -22 8 -18 11 -19 11 -5 1 22 7 22 34 -4 12 -11 46
-34 75 -51 30 -17 56 -37 59 -44 3 -8 11 -14 18 -14 35 0 18 -59 -17 -60 -8
-1 -5 -6 7 -16 11 -8 26 -13 35 -11 8 1 20 -4 26 -12 9 -12 12 -11 17 3 4 9 2
16 -3 16 -14 0 -41 31 -35 41 11 17 35 9 46 -13 10 -23 51 -48 76 -48 8 0 16
-13 20 -30 3 -17 12 -30 20 -30 9 0 13 -6 9 -15 -3 -8 -1 -15 4 -15 6 0 10 5
10 10 0 25 31 7 37 -20 7 -36 20 -47 36 -30 9 10 9 14 0 17 -24 9 -13 29 16
31 23 2 30 -3 35 -22 3 -14 15 -27 26 -31 10 -3 17 -11 14 -18 -8 -22 44 -68
72 -63 13 3 24 0 24 -5 0 -16 54 -6 62 11 5 10 7 8 7 -9 1 -13 4 -22 7 -18 8
7 67 -13 76 -27 4 -6 11 -11 16 -11 13 0 82 -49 82 -58 0 -5 4 -6 9 -3 4 3 26
-10 47 -29 21 -19 41 -30 42 -25 6 17 23 11 20 -7 -1 -10 1 -19 5 -20 5 -1 17
-11 27 -23 10 -11 22 -20 26 -19 24 4 44 -2 44 -14 0 -12 61 -50 83 -51 4 -1
11 -7 16 -14 4 -7 22 -14 39 -15 19 -1 34 -8 37 -18 3 -9 17 -21 30 -27 14 -7
25 -20 25 -31 0 -10 7 -24 15 -31 13 -10 15 -9 16 11 1 15 5 8 9 -16 l7 -40 2
35 2 35 28 -33 c16 -19 30 -29 32 -23 5 14 70 -18 68 -33 -3 -19 13 -46 27
-46 8 0 14 10 14 23 0 17 2 19 10 7 5 -9 5 -19 -1 -27 -7 -8 -7 -19 1 -34 10
-17 14 -19 21 -8 7 11 9 10 9 -3 0 -20 25 -24 35 -8 4 6 1 19 -6 28 -11 14
-10 13 8 -1 25 -22 51 -14 32 9 -17 21 -8 25 16 8 17 -13 18 -16 5 -25 -13 -8
-13 -11 3 -20 9 -5 17 -14 17 -19 0 -17 -28 -11 -40 8 -8 12 -13 13 -16 5 -3
-7 -12 -13 -20 -13 -14 0 -19 -28 -15 -76 1 -12 -6 -24 -14 -28 -14 -5 -15 1
-9 41 8 52 -9 54 -20 3 -3 -18 -10 -29 -16 -25 -5 3 -10 -2 -10 -12 -1 -10 -7
-31 -15 -48 l-14 -30 6 43 c3 26 2 42 -5 42 -5 0 -13 -22 -17 -50 -4 -30 -12
-50 -19 -50 -7 0 -21 -9 -31 -20 -17 -19 -17 -21 0 -40 18 -19 17 -20 -3 -20
-11 0 -24 -5 -27 -10 -12 -20 -25 1 -26 43 l-2 42 -6 -40 c-3 -22 -11 -39 -17
-38 -7 1 -20 -7 -29 -17 -11 -12 -13 -20 -7 -20 7 0 12 5 12 12 0 8 3 9 10 2
6 -6 6 -23 -1 -48 -12 -44 -5 -61 11 -25 l11 24 -6 -25 c-2 -14 -5 -29 -5 -34
0 -4 -7 -6 -15 -3 -11 5 -12 1 -5 -18 13 -33 3 -55 -23 -52 -19 2 -22 -3 -22
-40 -1 -45 -11 -65 -24 -45 -6 10 -12 4 -21 -17 -10 -25 -10 -34 0 -46 6 -8
13 -33 13 -55 1 -22 7 -40 13 -40 9 0 36 -64 38 -92 1 -3 4 -10 8 -14 5 -4 8
-20 8 -36 0 -16 6 -31 15 -34 8 -4 15 -15 15 -27 0 -11 3 -18 6 -14 13 12 30
-19 31 -57 1 -21 7 -42 15 -47 10 -6 10 -9 1 -9 -18 0 -16 -20 2 -34 8 -6 16
-29 18 -51 1 -22 6 -43 12 -47 6 -5 6 -11 -1 -18 -8 -8 -9 -24 -2 -52 5 -22 6
-48 3 -58 -10 -32 10 -30 25 3 7 17 15 26 18 19 2 -7 0 -20 -4 -30 -4 -9 -8
-28 -8 -42 -1 -19 -6 -24 -21 -23 -11 1 -14 0 -8 -3 7 -3 13 -15 13 -25 0 -11
-4 -18 -9 -15 -5 3 -11 -3 -14 -14 -6 -23 3 -26 21 -8 9 9 12 9 12 -1 0 -7 4
-9 10 -6 5 3 10 22 10 41 0 20 4 33 9 29 12 -7 12 -105 0 -105 -5 0 -9 -5 -9
-11 0 -6 9 -8 20 -4 25 8 50 -10 50 -36 0 -10 5 -21 10 -24 7 -4 10 7 9 33 -3
49 17 74 46 58 28 -16 33 -24 27 -52 -7 -39 31 -74 41 -36 4 14 5 13 6 -3 0
-12 -4 -26 -9 -31 -7 -7 -6 -11 5 -11 8 0 15 6 15 14 0 7 5 13 10 13 6 0 10
-9 10 -20 0 -11 7 -20 15 -20 8 0 15 -7 15 -16 0 -12 7 -14 30 -9 23 5 30 3
30 -8 0 -8 7 -18 16 -21 10 -4 14 -12 9 -24 -5 -13 -4 -14 6 -5 9 9 16 7 30
-12 11 -13 19 -29 19 -35 0 -8 8 -7 25 4 19 12 30 14 43 7 15 -9 15 -10 -5
-11 -17 0 -20 -4 -15 -22 3 -12 7 -17 10 -10 5 17 29 15 36 -4 4 -11 10 -13
19 -7 6 5 19 9 27 8 8 0 18 4 22 9 3 5 4 -17 1 -51 -5 -49 -3 -61 11 -66 19
-7 20 -3 6 24 -15 28 -2 89 19 88 10 0 11 -2 3 -6 -15 -6 -6 -23 14 -23 8 0
14 7 14 16 0 11 8 15 27 12 24 -3 28 0 25 19 -2 17 1 21 12 17 9 -3 16 -16 16
-29 0 -27 17 -36 48 -24 23 9 26 17 14 36 -5 8 -13 9 -22 3 -10 -7 -11 -10 -2
-10 6 0 12 -5 12 -11 0 -8 -5 -8 -15 1 -8 7 -15 23 -15 36 0 17 -4 22 -15 18
-10 -4 -15 0 -15 12 0 16 -2 17 -10 4 -8 -12 -10 -11 -10 7 0 18 5 21 28 19
15 -2 28 -8 28 -15 3 -22 4 -23 17 -13 21 18 65 2 77 -27 8 -22 9 -18 6 27 -4
40 -2 52 9 52 11 0 13 -8 9 -29 -6 -26 -4 -29 15 -24 11 3 21 10 21 15 0 5 5
6 10 3 6 -3 10 1 10 9 0 9 6 16 13 16 22 0 36 21 28 44 -5 13 -2 31 6 46 l15
25 -6 -28 c-5 -21 -2 -29 11 -34 10 -3 30 -15 45 -25 27 -19 58 -24 58 -10 0
4 -16 14 -35 21 -20 7 -35 19 -35 28 0 12 -3 13 -14 4 -12 -10 -13 -8 -9 8 3
12 9 21 14 21 10 0 12 34 2 43 -3 4 -13 1 -22 -6 -14 -10 -14 -10 -3 5 8 10
11 27 7 40 -6 22 -6 22 9 4 9 -11 16 -26 16 -33 0 -7 5 -13 11 -13 6 0 9 -14
7 -32 -2 -20 2 -33 11 -36 11 -4 12 3 7 29 -8 41 -17 114 -10 82 8 -35 24 -27
24 10 0 22 5 34 14 34 7 0 13 -7 12 -16 -1 -12 6 -15 27 -13 25 3 27 1 28 -35
1 -23 3 -29 6 -16 2 13 9 23 14 23 13 0 1 40 -17 61 -13 14 -12 18 2 29 11 10
14 23 9 46 -3 18 -1 35 5 39 6 4 10 -11 10 -39 0 -25 -4 -46 -10 -46 -18 0
-11 -22 8 -27 14 -3 18 -11 14 -29 -5 -28 13 -54 37 -54 13 1 13 3 -4 16 -23
17 -23 75 1 111 8 12 14 28 14 34 0 12 29 38 43 39 4 0 7 -7 7 -15 0 -8 5 -15
10 -15 13 0 13 13 -1 27 -7 7 -9 19 -5 28 5 14 9 15 21 5 10 -9 15 -9 15 -1 0
6 9 11 19 11 16 0 20 -8 23 -40 3 -38 4 -39 16 -19 8 11 9 18 3 14 -14 -8 -14
30 -1 56 16 28 31 23 24 -7 -5 -18 -3 -25 4 -20 6 3 15 -2 21 -11 8 -15 10
-15 11 -2 0 8 -5 20 -11 26 -6 6 -8 17 -3 24 5 9 11 2 19 -21 l12 -34 12 34
c12 33 13 34 27 16 7 -11 14 -28 14 -39 0 -13 5 -17 14 -14 8 3 17 3 19 -1 2
-4 2 0 -1 8 -12 39 -14 70 -3 70 7 0 9 -4 6 -10 -8 -14 13 -50 28 -47 7 1 18
13 25 27 l13 25 -4 -28 c-5 -31 16 -33 22 -1 2 10 12 25 22 32 11 7 19 20 19
28 0 24 15 15 34 -21 30 -55 30 -34 0 24 -24 48 -27 51 -40 34 -7 -10 -14 -25
-14 -33 -1 -9 -3 -11 -6 -3 -3 6 2 23 11 37 10 15 14 33 10 46 -8 25 3 26 21
2 13 -16 14 -16 8 3 -4 15 -3 16 4 6 11 -16 27 3 17 20 -9 14 15 70 27 63 5
-3 7 -17 3 -31 -4 -16 -2 -22 5 -18 6 4 10 -4 10 -19 0 -14 5 -26 10 -26 6 0
10 9 10 20 0 13 5 18 15 14 10 -4 15 0 15 14 0 11 -7 22 -15 26 -8 3 -15 11
-15 18 0 10 3 9 9 -1 5 -8 16 -11 26 -7 18 7 18 7 -1 -63 -5 -16 -4 -22 4 -17
6 3 16 -2 22 -11 9 -14 10 -3 6 47 -5 50 -3 61 6 52 7 -7 15 -33 19 -60 l7
-47 0 45 c0 25 2 52 5 60 3 8 8 22 10 30 3 9 6 4 6 -10 1 -14 6 -32 11 -40 7
-11 10 1 11 40 1 64 11 101 23 81 5 -7 3 -18 -3 -24 -6 -6 -11 -25 -10 -41 l1
-31 12 30 c7 17 16 47 19 68 6 37 5 39 -17 33 -26 -6 -37 8 -35 47 0 21 1 20
11 -3 7 -18 12 -21 15 -10 2 8 7 22 11 30 3 8 6 29 7 45 0 22 4 30 18 29 10
-1 17 5 17 16 0 10 7 25 15 34 8 8 15 19 15 25 0 6 5 11 10 11 6 0 10 6 10 14
0 8 -6 13 -12 12 -30 -5 -49 -24 -51 -53 -1 -21 -6 -28 -13 -22 -6 5 -15 4
-22 -3 -9 -9 -12 -9 -12 0 0 6 -6 9 -12 7 -9 -4 -14 11 -15 49 -2 42 1 56 14
60 12 5 14 1 10 -14 -3 -12 1 -33 9 -48 l14 -27 0 27 c0 20 4 26 15 22 10 -4
15 0 15 11 0 24 49 12 71 -17 16 -21 15 -53 -1 -43 -4 3 -14 -3 -21 -12 -12
-15 -12 -16 4 -10 21 8 22 -3 2 -29 -8 -10 -14 -30 -13 -44 1 -24 1 -24 5 -2
8 40 21 14 17 -35 l-4 -48 13 45 c12 45 31 57 32 20 0 -25 19 -31 23 -8 2 10
-4 25 -13 34 -9 10 -13 23 -9 33 8 21 8 27 -7 80 -10 35 -10 44 2 52 11 7 12
14 2 41 -11 30 -11 31 2 14 8 -11 15 -16 15 -12 0 5 7 3 16 -5 13 -10 17 -10
25 2 7 9 8 1 4 -26 -3 -22 -2 -34 1 -27 4 9 10 8 23 -7 18 -20 18 -20 19 11 0
17 6 36 13 42 9 8 11 7 6 -6 -4 -10 1 -18 14 -21 10 -3 19 -10 19 -17 0 -7 -8
-9 -20 -5 -16 5 -20 2 -20 -18 0 -25 -25 -44 -35 -27 -10 16 -19 12 -31 -13
-11 -25 -4 -37 29 -50 9 -3 17 -14 17 -24 0 -37 21 5 24 48 6 90 5 87 21 55 8
-15 15 -34 15 -40 0 -17 28 -16 34 1 3 7 -1 13 -10 13 -8 0 -12 5 -9 10 3 6 1
10 -4 10 -6 0 -11 5 -11 10 0 20 38 10 44 -12 5 -18 8 -20 15 -9 7 11 10 9 14
-10 4 -21 4 -20 6 6 1 17 8 39 16 49 8 11 15 23 15 27 0 10 -34 6 -42 -6 -4
-5 -8 7 -8 27 0 20 -2 42 -3 50 -2 7 -2 10 0 6 3 -5 11 -8 19 -8 16 0 19 -16
4 -25 -15 -9 -12 -25 5 -25 8 0 15 8 16 18 1 25 17 -26 18 -60 1 -19 -4 -28
-14 -28 -8 0 -15 -5 -15 -10 0 -6 6 -9 13 -8 7 2 13 -9 15 -27 5 -50 10 -59
27 -45 8 7 22 10 30 6 17 -6 20 5 6 20 -5 5 -11 23 -14 39 -4 27 -4 26 -6 -7
-1 -27 -6 -38 -16 -38 -12 0 -15 17 -14 93 1 75 3 86 10 60 12 -42 19 -42 19
1 0 25 -5 35 -20 39 -20 5 -28 27 -10 27 6 0 10 7 10 15 0 19 -19 20 -26 1 -7
-18 -34 -9 -34 10 0 24 -16 15 -43 -23 -19 -26 -23 -39 -15 -42 7 -2 16 -9 20
-15 12 -17 9 -76 -3 -76 -7 0 -9 10 -5 25 5 20 3 23 -11 18 -15 -6 -16 -4 -6
9 15 18 8 28 -21 29 -12 0 -15 3 -8 6 6 2 12 18 12 35 0 30 0 31 -20 13 -19
-17 -20 -17 -20 -1 0 10 9 20 19 23 11 3 25 18 31 34 14 33 41 41 33 9 -3 -11
-9 -20 -14 -20 -5 0 -9 -4 -9 -9 0 -23 38 4 49 35 13 35 26 43 34 22 3 -7 6
-4 6 8 1 18 -4 21 -33 18 -21 -1 -40 3 -47 12 -6 7 -15 11 -20 8 -5 -3 -9 0
-9 6 0 7 -7 10 -15 6 -12 -4 -15 5 -15 47 0 29 -6 59 -12 66 -10 11 -10 13 0
7 7 -4 12 -1 12 7 0 26 -29 14 -35 -15 -4 -15 -11 -28 -16 -28 -13 0 -11 44 2
57 7 7 8 19 3 30 -4 10 -8 27 -8 38 -1 15 -8 20 -29 21 -25 1 -28 -2 -24 -22
2 -13 -2 -32 -9 -41 -7 -10 -14 -13 -14 -6 0 6 5 15 10 18 6 4 8 11 4 16 -3 5
-2 23 1 40 5 23 10 28 18 20 6 -6 21 -11 34 -11 15 0 27 -8 33 -22 7 -20 9
-20 9 -4 1 10 9 25 19 32 16 13 16 13 -3 14 -17 0 -17 2 -5 10 11 7 12 12 4
18 -8 5 -9 23 -4 57 4 28 6 52 4 54 -2 2 -4 -1 -4 -8 0 -17 -58 -5 -82 17 -24
20 -23 35 2 27 15 -5 20 -2 20 13 0 15 -5 19 -20 15 -17 -4 -20 0 -20 25 0 17
-4 34 -10 37 -14 9 -12 35 5 69 16 30 17 48 13 163 -2 36 16 63 42 63 13 0 17
6 13 20 -3 13 -14 20 -29 20 -13 0 -24 5 -24 10 0 6 8 10 18 10 10 0 23 5 30
12 9 9 13 7 18 -5 7 -20 24 -13 24 10 0 9 -6 13 -15 9 -34 -13 -42 84 -8 109
17 13 6 75 -13 75 -24 0 -16 30 9 31 15 0 17 2 7 6 -8 3 -18 11 -22 17 -5 8
-8 7 -8 -1 0 -7 -6 -13 -14 -13 -8 0 -16 -6 -19 -12 -2 -7 -8 -10 -12 -6 -5 5
0 17 10 28 22 25 14 50 -15 43 -16 -4 -18 -8 -9 -20 13 -15 -1 -38 -23 -38
-21 0 -34 -33 -20 -55 15 -24 16 -50 2 -50 -5 0 -10 10 -10 23 0 13 -6 32 -14
42 -12 17 -12 21 1 31 13 9 14 16 4 40 -7 19 -10 21 -7 7 2 -13 0 -23 -5 -23
-5 0 -9 6 -9 14 0 29 -20 27 -26 -3 -7 -31 -35 -43 -49 -21 -4 6 -11 8 -16 5
-5 -4 -9 2 -9 13 0 26 -9 32 -34 22 -19 -7 -24 -3 -40 33 -16 36 -20 40 -29
25 -10 -14 -13 -11 -24 20 -14 42 -17 74 -5 55 4 -7 13 -9 21 -4 7 5 10 14 7
20 -4 6 -12 9 -17 6 -5 -4 -9 9 -8 27 1 31 2 31 9 8 7 -24 8 -24 16 -5 4 11 8
43 8 72 -1 41 2 50 14 46 16 -7 11 16 -14 72 l-14 30 4 -38 c3 -22 1 -35 -5
-32 -5 4 -9 15 -9 26 0 16 -5 19 -20 14 -16 -5 -20 -2 -20 14 0 14 5 19 15 14
9 -3 22 2 29 12 12 16 13 16 19 1 10 -25 27 -19 27 9 0 16 -6 25 -16 25 -8 0
-12 5 -9 10 8 12 46 3 57 -14 4 -6 8 -8 8 -4 0 13 58 -14 65 -30 4 -9 11 -42
15 -72 7 -53 7 -54 9 -12 1 47 21 59 21 12 0 -16 5 -30 10 -30 6 0 10 5 10 10
0 6 5 10 11 10 6 0 17 7 26 15 14 14 17 14 33 0 13 -12 20 -13 25 -5 8 14 45
-16 45 -37 0 -16 16 -17 25 -2 4 6 13 8 21 5 8 -3 14 1 14 10 0 8 7 17 15 20
8 4 15 14 16 23 0 10 2 12 6 3 9 -22 64 -45 77 -32 8 8 8 13 -1 18 -21 13 -20
53 2 66 11 6 23 16 27 21 4 6 8 2 8 -9 0 -15 3 -16 15 -6 12 10 15 7 21 -14 7
-29 38 -43 59 -26 10 8 19 8 34 1 27 -15 29 -14 24 12 -6 28 -41 30 -67 5 -24
-24 -28 -22 -15 6 10 20 8 29 -10 52 -11 15 -21 32 -21 39 0 7 -7 18 -15 25
-9 8 -15 30 -15 57 0 30 -5 45 -16 50 -12 4 -14 16 -9 58 5 34 3 55 -4 59 -7
5 -11 -2 -11 -18 0 -38 -27 -32 -45 10 -8 19 -19 33 -25 29 -5 -3 -10 -1 -10
5 0 12 9 16 63 25 31 5 37 3 38 -12 0 -16 1 -16 9 2 12 28 12 47 0 40 -6 -3
-10 4 -10 16 0 22 0 22 20 4 18 -17 20 -17 14 -2 -3 10 -17 20 -29 23 -21 5
-23 9 -12 31 9 19 8 26 -4 34 -10 6 -10 9 -1 9 6 0 12 7 12 16 0 10 6 14 15
11 11 -5 13 0 8 23 -3 20 -1 30 6 30 7 0 10 -4 6 -9 -3 -5 0 -13 6 -17 8 -4 9
3 4 26 -5 25 -4 31 6 28 9 -3 13 -17 12 -34 l-3 -29 13 30 14 30 17 -32 c9
-18 20 -33 25 -33 14 0 32 26 23 34 -4 4 0 13 9 19 9 7 18 19 21 27 3 9 7 4
10 -13 3 -17 0 -34 -8 -42 -18 -18 -18 -34 1 -41 8 -4 15 -15 15 -26 0 -10 4
-17 9 -14 10 6 3 44 -11 62 -5 7 -2 17 8 25 9 7 20 22 24 34 7 16 9 17 9 3 1
-9 14 -24 30 -34 20 -12 31 -29 38 -60 6 -24 6 -44 2 -44 -5 0 -9 5 -9 11 0 5
-5 7 -11 4 -7 -5 -5 -13 5 -24 9 -10 16 -23 16 -30 0 -7 4 -9 10 -6 6 4 11 -6
11 -22 2 -25 2 -25 6 -5 3 14 10 22 18 18 15 -5 28 41 14 50 -5 3 -9 14 -9 25
0 27 33 21 39 -6 2 -11 8 -31 13 -45 7 -20 11 -22 18 -10 8 12 10 9 11 -10 0
-14 3 -19 6 -12 4 10 8 10 19 1 10 -8 14 -8 14 0 0 6 0 14 0 19 0 4 -6 7 -12
7 -18 0 -28 16 -28 45 0 18 -3 21 -9 11 -7 -11 -9 -11 -13 0 -3 8 2 20 9 28
11 10 11 16 3 21 -8 5 -10 19 -5 39 4 19 2 37 -5 46 -13 16 -3 85 12 85 6 0 7
-11 4 -24 -5 -19 -2 -24 12 -22 22 4 29 44 8 52 -11 4 -16 19 -16 50 0 33 -5
46 -22 58 -15 11 -24 12 -29 5 -4 -7 -9 -4 -13 6 -9 24 -8 25 17 22 13 -1 23
4 23 13 5 48 6 54 11 43 3 -10 8 -9 20 2 19 19 37 19 29 0 -3 -8 -1 -15 4 -15
6 0 10 10 11 23 0 19 3 17 17 -12 13 -26 14 -35 5 -38 -7 -3 -13 -9 -13 -15 0
-6 7 -5 16 3 12 10 14 23 9 58 -8 51 0 49 26 -7 14 -30 18 -33 18 -14 1 12 7
22 15 22 16 0 39 -24 30 -32 -5 -6 48 -48 60 -48 4 0 11 11 16 24 10 28 -2 82
-19 78 -7 -1 -12 15 -12 40 -2 32 -3 36 -6 15 -4 -27 -5 -28 -18 -10 -13 17
-14 15 -15 -14 0 -23 -5 -33 -15 -33 -19 0 -19 14 1 56 19 40 12 54 -16 36
-17 -11 -20 -10 -20 7 0 11 -4 23 -10 26 -5 3 -10 16 -10 28 0 12 -9 28 -20
35 -12 7 -20 8 -20 2 0 -5 -4 -10 -10 -10 -15 0 -12 16 6 34 8 9 11 16 5 16
-6 0 -11 9 -11 21 0 11 -4 18 -10 14 -5 -3 -7 -12 -3 -20 3 -8 3 -15 0 -15 -2
0 -15 25 -27 56 -21 52 -22 56 -6 72 15 15 18 15 26 2 8 -12 10 -12 10 5 1 19
1 19 14 2 8 -10 22 -17 33 -15 12 2 17 -2 15 -14 -2 -13 4 -18 21 -18 22 0 59
-22 95 -57 7 -7 10 -18 6 -25 -5 -7 -2 -9 7 -6 12 5 14 -2 11 -31 -2 -29 -1
-33 8 -18 13 21 50 23 50 3 0 -24 16 -27 55 -10 35 14 37 14 42 -5 5 -21 34
-22 41 -1 3 9 -1 11 -12 7 -15 -6 -16 -2 -12 25 3 18 1 38 -5 44 -5 7 -8 18
-7 25 2 8 -4 14 -13 14 -39 1 -114 73 -95 92 13 13 54 -9 69 -39 10 -18 15
-25 13 -15 -9 31 11 18 28 -18 9 -19 22 -36 29 -36 7 -1 21 -2 32 -3 15 -1 19
-7 17 -25 -3 -18 0 -22 11 -18 9 3 18 -1 21 -9 3 -9 9 -13 14 -11 4 3 16 -1
27 -9 19 -14 19 -16 3 -25 -10 -5 -15 -16 -12 -24 4 -8 1 -15 -5 -15 -6 0 -11
5 -11 11 0 5 -5 7 -10 4 -17 -10 5 -30 35 -33 22 -2 24 1 15 17 -13 25 4 38
25 21 8 -7 15 -9 15 -4 1 20 20 -23 21 -46 l1 -25 7 25 7 25 8 -30 9 -30 12
29 c11 27 13 28 23 10 11 -18 11 -18 12 3 0 12 5 25 10 28 6 4 10 -6 10 -23 0
-17 -6 -32 -15 -36 -20 -7 -19 -40 1 -60 20 -21 54 -21 54 0 0 8 7 22 15 30 8
9 15 23 14 32 0 14 -2 13 -8 -2 -7 -18 -8 -18 -14 5 -4 13 -7 32 -7 42 0 15 3
15 21 5 23 -15 52 -73 51 -103 -1 -16 0 -17 4 -2 8 24 24 21 24 -5 0 -12 3
-18 6 -15 4 4 14 -2 23 -12 9 -10 28 -21 44 -25 15 -3 27 -11 27 -17 0 -8 5
-7 15 1 12 10 15 10 15 0 0 -8 3 -11 6 -7 7 6 34 -16 34 -28 0 -16 45 -43 57
-34 8 7 17 1 29 -20 10 -16 28 -32 40 -35 13 -4 26 -18 33 -37 6 -17 14 -28
19 -25 5 3 7 -6 4 -19 -2 -15 0 -25 7 -25 6 0 11 -5 11 -11 0 -6 7 -27 17 -46
l16 -35 14 29 c7 15 11 20 8 10 -3 -13 5 -29 25 -47 16 -15 30 -35 30 -43 0
-32 19 -26 31 8 11 29 15 33 20 18 12 -28 10 -125 -1 -118 -14 9 -12 -1 3 -17
17 -18 77 -159 77 -180 0 -10 4 -18 8 -18 5 0 14 -18 21 -39 6 -21 18 -42 26
-45 8 -3 15 -17 15 -31 0 -14 7 -39 15 -55 9 -18 13 -40 9 -55 -5 -19 -1 -33
13 -48 27 -30 34 -52 38 -122 2 -34 9 -74 15 -89 6 -17 7 -33 2 -38 -12 -12 0
-70 16 -76 10 -3 12 124 12 598 -1 516 -3 604 -15 617 -19 19 -19 53 0 53 13
0 15 57 15 450 l0 450 -4140 0 -4140 0 0 -4140z m5869 3915 c6 -3 11 0 11 7 1
8 6 6 15 -6 8 -11 15 -14 15 -8 0 7 7 12 15 12 8 0 15 -6 15 -12 0 -9 4 -8 11
2 9 13 10 13 6 -2 -3 -9 -9 -32 -12 -50 -7 -35 -55 -83 -55 -54 0 16 -18 31
-27 22 -3 -3 0 -12 7 -21 10 -12 10 -15 -4 -15 -9 0 -16 2 -16 4 0 2 -5 28
-10 57 -6 30 -7 68 -4 84 6 28 7 28 15 9 4 -12 12 -25 18 -29z m1321 -45 c0
-5 -2 -10 -4 -10 -3 0 -8 5 -11 10 -3 6 -1 10 4 10 6 0 11 -4 11 -10z m-1227
-87 c8 -43 -3 -83 -23 -83 -13 0 -19 10 -22 38 -5 53 1 72 21 72 12 0 20 -10
24 -27z m1308 -65 c9 -17 9 -20 -4 -15 -8 3 -20 0 -26 -6 -8 -8 -11 -6 -11 9
0 39 23 45 41 12z m111 -3 c5 -6 8 -5 8 3 0 15 49 -17 50 -32 0 -5 7 -17 16
-27 20 -22 9 -46 -12 -28 -11 9 -14 8 -15 -2 0 -8 -9 6 -19 31 -18 43 -19 44
-20 15 -2 -30 -2 -30 -10 -5 -4 14 -8 21 -9 17 -1 -5 -8 -1 -17 7 -8 9 -13 20
-9 26 7 12 27 9 37 -5z m-822 -35 c0 -5 -2 -10 -4 -10 -3 0 -8 5 -11 10 -3 6
-1 10 4 10 6 0 11 -4 11 -10z m33 -5 c4 -8 2 -17 -3 -20 -6 -4 -10 -4 -10 -1
0 2 -3 11 -6 20 -3 9 -2 16 4 16 5 0 12 -7 15 -15z m864 -120 c8 -22 -6 -33
-17 -15 -13 20 -12 30 0 30 6 0 13 -7 17 -15z m428 -123 c-8 -8 -25 10 -25 26
0 13 2 13 14 -4 8 -10 13 -21 11 -22z m175 -117 c0 -8 -4 -15 -10 -15 -5 0
-10 7 -10 15 0 8 5 15 10 15 6 0 10 -7 10 -15z m-100 -33 c0 -15 -2 -15 -10
-2 -13 20 -13 33 0 25 6 -3 10 -14 10 -23z m-1150 -1 c0 -11 -4 -23 -10 -26
-6 -4 -10 5 -10 19 0 14 5 26 10 26 6 0 10 -9 10 -19z m-280 -22 c0 -11 -4
-18 -10 -14 -5 3 -7 12 -3 20 7 21 13 19 13 -6z m40 11 c0 -5 -2 -10 -4 -10
-3 0 -8 5 -11 10 -3 6 -1 10 4 10 6 0 11 -4 11 -10z m1410 -48 c0 -15 -2 -15
-10 -2 -13 20 -13 33 0 25 6 -3 10 -14 10 -23z m-80 -211 c0 -4 -7 -16 -15
-27 -15 -18 -15 -18 -9 9 5 20 3 27 -7 25 -7 -2 -15 5 -17 15 -4 18 -3 18 22
2 14 -10 26 -20 26 -24z m-1883 -73 c-3 -8 -6 -5 -6 6 -1 11 2 17 5 13 3 -3 4
-12 1 -19z m2018 3 c3 -5 1 -12 -4 -15 -5 -3 -11 1 -15 9 -6 16 9 21 19 6z
m-1915 -46 c0 -25 -4 -45 -10 -45 -5 0 -6 7 -3 17 4 11 3 14 -5 9 -7 -4 -12
-1 -12 9 0 9 5 13 10 10 6 -3 10 -1 10 4 0 6 -4 11 -10 11 -5 0 -10 5 -10 11
0 5 5 7 10 4 6 -3 10 -1 10 4 0 6 2 11 5 11 3 0 5 -20 5 -45z m-50 -38 c0 -19
4 -26 12 -21 8 5 9 2 5 -10 -4 -10 -7 -25 -7 -34 0 -15 -2 -15 -10 -2 -6 10
-10 11 -10 3 0 -7 -4 -13 -10 -13 -12 0 -30 65 -30 108 l0 33 25 -18 c16 -12
24 -28 25 -46z m2107 -29 c-3 -7 -5 -2 -5 12 0 14 2 19 5 13 2 -7 2 -19 0 -25z
m-2056 -15 c-8 -15 -10 -15 -11 -2 0 17 10 32 18 25 2 -3 -1 -13 -7 -23z
m2089 -41 c0 -7 -4 -10 -10 -7 -5 3 -10 16 -10 28 0 18 2 19 10 7 5 -8 10 -21
10 -28z m-3320 -17 c0 -8 -4 -15 -10 -15 -5 0 -10 7 -10 15 0 8 5 15 10 15 6
0 10 -7 10 -15z m220 -16 c0 -5 -4 -9 -10 -9 -5 0 -10 7 -10 16 0 8 5 12 10 9
6 -3 10 -10 10 -16z m3120 1 c0 -5 -4 -10 -10 -10 -5 0 -10 5 -10 10 0 6 5 10
10 10 6 0 10 -4 10 -10z m-106 -57 c9 -22 -5 -39 -16 -19 -5 9 -13 14 -17 11
-5 -2 -11 8 -13 24 -4 28 -3 28 18 14 12 -8 25 -21 28 -30z m-2496 -206 c2
-12 -1 -15 -12 -11 -19 7 -22 38 -3 32 6 -3 13 -12 15 -21z m2612 -10 c0 -18
-2 -19 -10 -7 -13 20 -13 43 0 35 6 -3 10 -16 10 -28z m-2560 -17 c0 -21 -25
-4 -28 20 -4 21 -2 22 12 7 9 -8 16 -21 16 -27z m-99 -33 c-13 -13 -26 -3 -16
12 3 6 11 8 17 5 6 -4 6 -10 -1 -17z m412 -23 c17 -23 17 -25 -9 -51 l-26 -28
6 38 c5 29 3 39 -9 43 -8 3 -15 15 -15 25 0 16 3 17 18 8 9 -6 25 -22 35 -35z
m2267 26 c0 -5 -4 -10 -10 -10 -5 0 -10 5 -10 10 0 6 5 10 10 10 6 0 10 -4 10
-10z m-2977 -51 c-8 -28 -12 -23 -11 12 1 17 4 25 8 18 4 -6 5 -20 3 -30z
m617 11 c0 -11 5 -21 10 -21 6 -1 16 -2 22 -3 19 -2 21 -33 3 -40 -15 -5 -65
19 -65 33 1 40 30 70 30 31z m-550 -19 c0 -11 -4 -23 -10 -26 -6 -4 -10 5 -10
19 0 14 5 26 10 26 6 0 10 -9 10 -19z m70 -31 c0 -26 -5 -31 -29 -36 -22 -5
-27 -10 -24 -25 5 -19 -11 -27 -21 -10 -7 11 33 63 44 56 4 -3 11 6 14 20 9
34 16 31 16 -5z m-99 -47 c-10 -17 -10 -16 -11 3 0 23 13 41 18 25 2 -6 -1
-18 -7 -28z m99 -13 c-28 -21 -33 -20 -24 4 3 9 16 16 28 16 20 0 20 -1 -4
-20z m-3553 -22 c-3 -8 -6 -5 -6 6 -1 11 2 17 5 13 3 -3 4 -12 1 -19z m-190
-10 c-3 -8 -6 -5 -6 6 -1 11 2 17 5 13 3 -3 4 -12 1 -19z m273 6 c0 -2 -7 -4
-15 -4 -8 0 -15 4 -15 10 0 5 7 7 15 4 8 -4 15 -8 15 -10z m3647 -36 c-3 -7
-5 -2 -5 12 0 14 2 19 5 13 2 -7 2 -19 0 -25z m-190 -60 c-3 -7 -5 -2 -5 12 0
14 2 19 5 13 2 -7 2 -19 0 -25z m183 17 c0 -8 -2 -15 -4 -15 -2 0 -6 7 -10 15
-3 8 -1 15 4 15 6 0 10 -7 10 -15z m30 -4 c0 -6 -4 -13 -10 -16 -5 -3 -10 1
-10 9 0 9 5 16 10 16 6 0 10 -4 10 -9z m-4036 -17 c9 -22 8 -24 -9 -24 -8 0
-15 9 -15 20 0 24 15 27 24 4z m3861 7 c3 -5 1 -12 -5 -16 -5 -3 -10 1 -10 9
0 18 6 21 15 7z m-75 -40 c0 -6 -4 -13 -10 -16 -5 -3 -10 1 -10 9 0 9 5 16 10
16 6 0 10 -4 10 -9z m160 -16 c10 -12 10 -15 -4 -15 -9 0 -16 7 -16 15 0 8 2
15 4 15 2 0 9 -7 16 -15z m29 -69 c-9 -8 -10 -5 -5 14 3 14 6 32 7 40 1 8 4 2
6 -14 3 -16 -1 -34 -8 -40z m-173 15 c-12 -19 -24 -12 -19 10 4 13 9 17 15 11
6 -6 7 -15 4 -21z m-1980 -128 c2 -36 -1 -40 -21 -40 -29 0 -42 36 -20 53 8 6
15 17 15 23 0 7 6 11 13 9 6 -3 13 -23 13 -45z m66 14 c-2 -10 1 -17 5 -16 29
5 53 -3 53 -17 0 -12 4 -14 13 -7 17 14 47 24 46 15 -3 -20 2 -32 11 -27 6 4
8 15 5 25 -8 25 26 36 42 14 7 -10 13 -21 13 -26 0 -11 58 -10 65 1 8 14 58
-6 72 -28 10 -15 9 -22 -2 -31 -8 -7 -15 -24 -15 -39 0 -25 -2 -26 -47 -24
-27 1 -52 2 -56 2 -5 1 -6 18 -2 39 l6 38 -35 -1 c-20 -1 -38 -4 -42 -7 -3 -4
-21 2 -40 12 -20 12 -36 15 -39 9 -4 -5 -15 -7 -26 -4 -18 6 -25 -8 -20 -38 1
-5 -3 -6 -9 -2 -5 3 -10 15 -10 27 0 14 -5 18 -16 14 -12 -5 -15 -2 -10 10 3
8 6 31 6 51 0 28 3 34 18 31 10 -2 16 -11 14 -21z m2158 1 c0 -16 -3 -19 -11
-11 -6 6 -8 16 -5 22 11 17 16 13 16 -11z m-1790 -48 c0 -5 -7 -10 -16 -10 -8
0 -12 5 -9 10 3 6 10 10 16 10 5 0 9 -4 9 -10z m38 -49 c3 -8 -3 -12 -14 -9
-23 4 -31 27 -8 24 10 -2 20 -8 22 -15z m-300 -30 c5 -33 -7 -40 -53 -32 -34
5 -40 10 -41 33 -1 24 1 26 45 24 40 -1 46 -4 49 -25z m64 -13 c-13 -13 -32
-2 -32 18 0 12 4 13 21 3 14 -7 18 -14 11 -21z m178 23 c0 -5 10 -12 23 -16
19 -6 20 -8 4 -12 -10 -3 -25 -2 -33 1 -16 6 -19 36 -4 36 6 0 10 -4 10 -9z
m-223 -33 c-3 -7 -5 -2 -5 12 0 14 2 19 5 13 2 -7 2 -19 0 -25z m2370 10 c-3
-8 -6 -5 -6 6 -1 11 2 17 5 13 3 -3 4 -12 1 -19z m-2901 -9 c7 -12 -15 -31
-28 -23 -4 3 -8 12 -8 20 0 17 26 19 36 3z m2704 -15 c0 -9 -5 -14 -12 -12
-18 6 -21 28 -4 28 9 0 16 -7 16 -16z m40 -19 c0 -19 -4 -35 -10 -35 -11 0
-14 53 -3 63 11 12 13 8 13 -28z m127 -17 c-3 -8 -6 -5 -6 6 -1 11 2 17 5 13
3 -3 4 -12 1 -19z m-350 -10 c-3 -8 -6 -5 -6 6 -1 11 2 17 5 13 3 -3 4 -12 1
-19z m183 2 c0 -5 -5 -10 -11 -10 -5 0 -7 5 -4 10 3 6 8 10 11 10 2 0 4 -4 4
-10z m132 -18 c3 -9 1 -26 -3 -37 -7 -19 -8 -19 -8 2 -1 12 -4 28 -7 37 -3 9
-2 16 4 16 5 0 12 -8 14 -18z m-4495 -149 c-3 -10 -5 -4 -5 12 0 17 2 24 5 18
2 -7 2 -21 0 -30z m0 -89 c-7 -7 -37 7 -37 18 0 5 5 6 10 3 6 -3 10 2 10 13 0
33 15 35 18 2 2 -18 1 -34 -1 -36z m4485 10 c-3 -17 -8 -22 -15 -15 -7 7 -6
15 3 26 17 20 18 19 12 -11z m18 -17 c0 -7 -6 -22 -14 -33 -13 -16 -17 -17
-28 -5 -11 12 -10 13 4 8 13 -5 19 0 24 18 7 27 14 33 14 12z m-165 -27 c3 -5
3 -15 -1 -21 -6 -11 -23 6 -24 24 0 10 18 9 25 -3z m76 -100 c10 0 19 -6 19
-14 0 -26 -21 -29 -46 -5 -24 22 -24 22 -39 3 -14 -18 -14 -17 -3 9 7 16 17
26 25 23 9 -4 14 4 15 22 1 24 2 23 5 -5 3 -25 9 -33 24 -33z m17 42 c2 -7 -3
-12 -12 -12 -9 0 -16 7 -16 16 0 17 22 14 28 -4z m32 8 c0 -5 -4 -10 -10 -10
-5 0 -10 5 -10 10 0 6 5 10 10 10 6 0 10 -4 10 -10z m40 -6 c0 -8 -4 -12 -10
-9 -5 3 -10 10 -10 16 0 5 5 9 10 9 6 0 10 -7 10 -16z m-20 -34 c0 -5 -4 -10
-10 -10 -5 0 -10 5 -10 10 0 6 5 10 10 10 6 0 10 -4 10 -10z m-22 -52 c-6 -18
-28 -21 -28 -4 0 9 7 16 16 16 9 0 14 -5 12 -12z m-100 -23 c-6 -14 -13 -23
-16 -21 -7 7 9 46 18 46 5 0 4 -11 -2 -25z m52 1 c0 -8 -4 -17 -9 -21 -12 -7
-24 12 -16 25 9 15 25 12 25 -4z m-1911 -89 c1 -10 -3 -15 -9 -12 -5 3 -10 23
-9 43 1 33 2 34 9 12 4 -14 8 -33 9 -43z m1991 23 c0 -5 -4 -10 -10 -10 -5 0
-10 5 -10 10 0 6 5 10 10 10 6 0 10 -4 10 -10z m45 -90 c3 -5 -1 -10 -10 -10
-9 0 -13 5 -10 10 3 6 8 10 10 10 2 0 7 -4 10 -10z m-30 -40 c3 -5 1 -10 -4
-10 -6 0 -11 5 -11 10 0 6 2 10 4 10 3 0 8 -4 11 -10z m-1881 -15 c3 -8 1 -15
-4 -15 -6 0 -10 7 -10 15 0 8 2 15 4 15 2 0 6 -7 10 -15z m96 -25 c0 -5 -4
-10 -10 -10 -5 0 -10 5 -10 10 0 6 5 10 10 10 6 0 10 -4 10 -10z m1762 -25
c-2 -14 -8 -25 -13 -25 -12 0 -11 7 1 31 14 26 18 24 12 -6z m-1912 -40 c0
-17 -2 -17 -10 -5 -5 8 -10 24 -10 35 0 17 2 17 10 5 5 -8 10 -24 10 -35z
m1877 -17 c-3 -7 -5 -2 -5 12 0 14 2 19 5 13 2 -7 2 -19 0 -25z m-1988 -22
c-9 -8 -10 -7 -5 7 3 10 7 24 7 30 1 7 3 4 6 -7 3 -10 -1 -23 -8 -30z m104
-11 c-7 -21 -13 -19 -13 6 0 11 4 18 10 14 5 -3 7 -12 3 -20z m-130 8 c4 -3
-2 -12 -13 -20 -26 -18 -48 -6 -23 13 21 15 27 17 36 7z m674 -15 c-3 -8 -6
-5 -6 6 -1 11 2 17 5 13 3 -3 4 -12 1 -19z m113 -8 c0 -5 -4 -10 -10 -10 -5 0
-10 5 -10 10 0 6 5 10 10 10 6 0 10 -4 10 -10z m1253 -28 c15 -17 15 -18 -3
-19 -14 -1 -20 5 -20 18 0 24 3 24 23 1z m-1878 -12 c3 -5 1 -10 -4 -10 -6 0
-11 5 -11 10 0 6 2 10 4 10 3 0 8 -4 11 -10z m-158 -6 c-3 -3 -12 -4 -19 -1
-8 3 -5 6 6 6 11 1 17 -2 13 -5z m2163 -68 c0 -62 -14 -65 -17 -5 -2 27 2 49
7 49 6 0 10 -20 10 -44z m-2323 12 c-3 -8 -6 -5 -6 6 -1 11 2 17 5 13 3 -3 4
-12 1 -19z m2280 -20 c-3 -8 -6 -5 -6 6 -1 11 2 17 5 13 3 -3 4 -12 1 -19z
m-2160 -30 c-3 -8 -6 -5 -6 6 -1 11 2 17 5 13 3 -3 4 -12 1 -19z m1983 12 c0
-5 -4 -10 -10 -10 -5 0 -10 5 -10 10 0 6 5 10 10 10 6 0 10 -4 10 -10z m32
-18 c-7 -2 -12 -10 -12 -18 0 -9 -4 -12 -10 -9 -6 4 -3 16 7 32 12 17 19 21
22 12 2 -7 -1 -15 -7 -17z m-1172 2 c0 -8 -4 -12 -10 -9 -5 3 -10 10 -10 16 0
5 5 9 10 9 6 0 10 -7 10 -16z m180 12 c0 -3 -4 -8 -10 -11 -5 -3 -10 -1 -10 4
0 6 5 11 10 11 6 0 10 -2 10 -4z m880 -25 c0 -10 7 -24 15 -31 11 -9 15 -31
14 -79 0 -46 -3 -58 -8 -41 -4 14 -7 41 -5 60 1 19 -3 42 -11 50 -18 21 -29
60 -16 60 6 0 11 -8 11 -19z m-263 -43 c-3 -8 -6 -5 -6 6 -1 11 2 17 5 13 3
-3 4 -12 1 -19z m153 12 c0 -5 -2 -10 -4 -10 -3 0 -8 5 -11 10 -3 6 -1 10 4
10 6 0 11 -4 11 -10z m454 -14 c-6 -16 -24 -23 -24 -8 0 10 22 33 27 28 2 -2
1 -11 -3 -20z m-508 -27 c-1 -43 -11 -40 -20 7 -5 23 -3 31 7 31 10 0 14 -12
13 -38z m324 31 c0 -5 -4 -10 -10 -10 -5 0 -10 5 -10 10 0 6 5 10 10 10 6 0
10 -4 10 -10z m50 -23 c0 -18 6 -39 13 -46 10 -11 9 -13 -3 -9 -9 3 -16 20
-18 43 -3 28 -6 35 -13 24 -7 -11 -9 -11 -9 4 0 9 7 17 15 17 10 0 15 -10 15
-33z m-120 3 c-6 -11 -13 -20 -15 -20 -3 0 -5 9 -5 20 0 11 7 20 15 20 13 0
14 -4 5 -20z m-200 -4 c0 -3 -4 -8 -10 -11 -5 -3 -10 -1 -10 4 0 6 5 11 10 11
6 0 10 -2 10 -4z m250 -10 c0 -8 4 -16 9 -18 13 -5 25 -68 12 -68 -6 0 -11 8
-11 18 0 9 -7 30 -15 46 -18 34 -18 36 -5 36 6 0 10 -6 10 -14z m-1043 -33
c-3 -10 -5 -4 -5 12 0 17 2 24 5 18 2 -7 2 -21 0 -30z m1223 22 c0 -8 -3 -14
-7 -14 -5 1 -12 0 -18 -1 -5 -1 -17 -3 -25 -4 -10 -1 -17 -16 -21 -46 -3 -25
-7 -37 -7 -27 -1 9 -9 17 -17 17 -8 0 -15 7 -15 15 0 8 6 12 14 9 8 -3 16 4
20 20 5 19 13 26 31 26 13 0 27 5 30 10 9 14 15 12 15 -5z m-242 -33 c1 -19
-5 -35 -20 -48 -21 -19 -21 -19 -14 6 4 14 10 35 13 48 7 31 18 28 21 -6z
m-1174 -21 c-9 -37 -11 -37 -16 2 -3 25 0 33 9 30 8 -3 11 -14 7 -32z m985
-44 c1 14 38 5 44 -11 3 -6 -2 -21 -10 -31 -11 -14 -17 -16 -20 -7 -3 6 -11
12 -19 12 -8 0 -14 9 -14 21 0 11 -7 27 -15 35 -17 17 -21 49 -5 39 6 -3 10 2
11 12 0 10 7 -4 14 -32 7 -27 13 -45 14 -38z m11 79 c0 -3 -4 -8 -10 -11 -5
-3 -10 -1 -10 4 0 6 5 11 10 11 6 0 10 -2 10 -4z m-103 -28 c-3 -8 -6 -5 -6 6
-1 11 2 17 5 13 3 -3 4 -12 1 -19z m143 3 c0 -11 -3 -22 -7 -24 -5 -3 -8 6 -8
19 0 13 3 24 8 24 4 0 7 -9 7 -19z m259 -21 c0 -10 -3 -8 -9 5 -12 27 -12 43
0 25 5 -8 9 -22 9 -30z m83 3 c6 -47 -1 -71 -13 -51 -12 17 -11 88 0 88 5 0
11 -17 13 -37z m-138 -67 c-4 -12 -2 -16 5 -12 6 4 11 2 11 -3 0 -6 -12 -11
-26 -11 -20 0 -25 4 -20 16 9 23 -3 37 -20 23 -27 -22 -15 9 13 36 l28 25 7
-27 c4 -16 5 -36 2 -47z m-2217 42 c-3 -8 -6 -5 -6 6 -1 11 2 17 5 13 3 -3 4
-12 1 -19z m1729 -15 c-10 -10 -19 5 -10 18 6 11 8 11 12 0 2 -7 1 -15 -2 -18z
m158 21 c11 -4 16 -18 15 -43 l-1 -36 -8 30 c-4 17 -8 26 -9 20 -1 -11 -21 15
-21 28 0 9 4 9 24 1z m-4339 -14 c3 -5 1 -10 -4 -10 -6 0 -11 5 -11 10 0 6 2
10 4 10 3 0 8 -4 11 -10z m25 -91 c0 -11 -4 -17 -10 -14 -5 3 -10 15 -10 26 0
11 5 17 10 14 6 -3 10 -15 10 -26z m4555 21 c3 -5 1 -10 -4 -10 -6 0 -11 5
-11 10 0 6 2 10 4 10 3 0 8 -4 11 -10z m-68 -32 c-3 -7 -5 -2 -5 12 0 14 2 19
5 13 2 -7 2 -19 0 -25z m420 0 c-3 -8 -6 -5 -6 6 -1 11 2 17 5 13 3 -3 4 -12
1 -19z m-597 8 c0 -3 -4 -8 -10 -11 -5 -3 -10 -1 -10 4 0 6 5 11 10 11 6 0 10
-2 10 -4z m159 -36 c3 0 7 -8 7 -18 0 -10 -6 -19 -12 -19 -16 0 -26 40 -17 64
7 16 8 16 11 -4 2 -13 7 -23 11 -23z m-44 20 c3 -5 1 -10 -4 -10 -6 0 -11 5
-11 10 0 6 2 10 4 10 3 0 8 -4 11 -10z m-172 -37 c-7 -3 -13 -12 -14 -21 0
-11 -2 -13 -6 -4 -6 15 17 46 26 36 3 -4 0 -9 -6 -11z m177 -8 c0 -8 -4 -15
-10 -15 -5 0 -10 7 -10 15 0 8 5 15 10 15 6 0 10 -7 10 -15z m-115 -5 c3 -5 1
-10 -4 -10 -6 0 -11 5 -11 10 0 6 2 10 4 10 3 0 8 -4 11 -10z m365 -11 c0 -11
-4 -17 -10 -14 -5 3 -10 13 -10 21 0 8 5 14 10 14 6 0 10 -9 10 -21z m-283
-21 c-3 -7 -5 -2 -5 12 0 14 2 19 5 13 2 -7 2 -19 0 -25z m-857 8 c0 -8 -4
-18 -10 -21 -5 -3 -10 3 -10 14 0 12 5 21 10 21 6 0 10 -6 10 -14z m800 -11
c0 -8 -4 -15 -10 -15 -5 0 -10 7 -10 15 0 8 5 15 10 15 6 0 10 -7 10 -15z
m132 -7 c12 -20 10 -28 -7 -22 -8 4 -15 10 -15 15 0 5 -4 9 -10 9 -5 0 -10 -7
-10 -15 0 -8 -4 -15 -10 -15 -11 0 -14 33 -4 43 9 9 47 -1 56 -15z m-111 -15
c-12 -20 -14 -14 -5 12 4 9 9 14 11 11 3 -2 0 -13 -6 -23z m163 -5 c9 -17 16
-32 16 -34 0 -6 -50 3 -58 10 -4 4 0 6 8 4 11 -2 14 4 12 25 -4 35 3 34 22 -5z
m-258 8 c20 -21 17 -28 -6 -14 -11 7 -20 16 -20 20 0 12 10 9 26 -6z m-506
-22 c0 -14 -4 -23 -9 -20 -5 3 -7 15 -4 26 7 28 13 25 13 -6z m624 -18 c-3
-15 -8 -25 -11 -23 -2 3 -1 17 3 31 3 15 8 25 11 23 2 -3 1 -17 -3 -31z m-124
-12 c0 -8 -5 -12 -10 -9 -6 4 -8 11 -5 16 9 14 15 11 15 -7z m17 -6 c-3 -8 -6
-5 -6 6 -1 11 2 17 5 13 3 -3 4 -12 1 -19z m131 -13 c0 -19 -4 -35 -9 -35 -10
0 -12 53 -2 63 10 11 11 9 11 -28z m92 -5 c0 -15 -20 -12 -20 3 -1 7 -6 5 -14
-6 -9 -11 -17 -14 -21 -8 -10 18 18 40 38 30 9 -6 17 -14 17 -19z m-710 -2 c0
-18 -2 -20 -9 -8 -6 8 -7 18 -5 22 9 14 14 9 14 -14z m587 -20 c-3 -8 -6 -5
-6 6 -1 11 2 17 5 13 3 -3 4 -12 1 -19z m-620 -40 c-3 -7 -5 -2 -5 12 0 14 2
19 5 13 2 -7 2 -19 0 -25z m443 12 c0 -11 -4 -20 -10 -20 -5 0 -10 9 -10 20 0
11 5 20 10 20 6 0 10 -9 10 -20z m278 -15 c0 -25 -1 -25 -15 -5 -8 11 -11 25
-8 30 10 16 23 3 23 -25z m-748 -43 c0 -15 -2 -15 -10 -2 -13 20 -13 33 0 25
6 -3 10 -14 10 -23z m111 -5 c-10 -9 -11 -8 -5 6 3 10 9 15 12 12 3 -3 0 -11
-7 -18z m35 -4 c-10 -10 -19 5 -10 18 6 11 8 11 12 0 2 -7 1 -15 -2 -18z m644
23 c0 -3 -4 -8 -10 -11 -5 -3 -10 -1 -10 4 0 6 5 11 10 11 6 0 10 -2 10 -4z
m-50 -47 c0 -11 -4 -19 -9 -19 -10 0 -21 24 -21 47 0 13 3 13 15 3 8 -7 15
-21 15 -31z m-103 -31 c-2 -13 -4 -5 -4 17 -1 22 1 32 4 23 2 -10 2 -28 0 -40z
m-620 10 c-3 -8 -6 -5 -6 6 -1 11 2 17 5 13 3 -3 4 -12 1 -19z m239 -72 c-2
-6 -5 -2 -5 8 -1 31 -15 8 -18 -30 -1 -19 2 -34 8 -34 5 0 9 -7 9 -15 0 -8 4
-15 9 -15 5 0 11 -11 13 -24 4 -18 0 -26 -14 -29 -15 -4 -18 1 -18 34 0 36 -7
44 -32 40 -10 -1 -10 23 -1 33 9 9 14 35 14 76 l-1 35 21 -34 c11 -18 18 -38
15 -45z m191 32 c-3 -8 -6 -5 -6 6 -1 11 2 17 5 13 3 -3 4 -12 1 -19z m-107 2
c0 -5 -4 -10 -10 -10 -5 0 -10 5 -10 10 0 6 5 10 10 10 6 0 10 -4 10 -10z m77
-12 c-3 -8 -6 -5 -6 6 -1 11 2 17 5 13 3 -3 4 -12 1 -19z m-383 -32 c-3 -21
-9 -35 -11 -32 -3 3 -2 21 1 42 4 20 10 34 12 31 3 -3 2 -21 -2 -41z m536 24
c0 -5 -5 -10 -11 -10 -5 0 -7 5 -4 10 3 6 8 10 11 10 2 0 4 -4 4 -10z m-605
-9 c3 -5 1 -12 -5 -16 -5 -3 -10 1 -10 9 0 18 6 21 15 7z m431 -28 c-11 -11
-19 6 -11 24 8 17 8 17 12 0 3 -10 2 -21 -1 -24z m-471 17 c-3 -5 -10 -10 -16
-10 -5 0 -9 5 -9 10 0 6 7 10 16 10 8 0 12 -4 9 -10z m215 0 c0 -5 -4 -10 -10
-10 -5 0 -10 5 -10 10 0 6 5 10 10 10 6 0 10 -4 10 -10z m205 -39 c-7 -32 -25
-43 -25 -16 0 8 5 15 10 15 6 0 10 10 10 22 0 12 3 19 6 15 3 -3 3 -19 -1 -36z
m-392 -8 c-6 -16 -25 -13 -31 5 -2 6 6 10 16 9 12 -1 18 -6 15 -14z m577 -3
c0 -5 -2 -10 -4 -10 -3 0 -8 5 -11 10 -3 6 -1 10 4 10 6 0 11 -4 11 -10z m-70
-20 c0 -5 -2 -10 -4 -10 -3 0 -8 5 -11 10 -3 6 -1 10 4 10 6 0 11 -4 11 -10z
m50 -6 c0 -8 -5 -12 -11 -9 -7 5 -8 -5 -4 -32 5 -27 4 -34 -4 -23 -5 8 -7 18
-5 22 3 4 -3 8 -13 9 -10 0 -13 3 -5 6 6 2 12 13 12 24 0 10 7 19 15 19 8 0
15 -7 15 -16z m-80 -17 c0 -16 -56 -68 -64 -60 -11 12 -6 22 14 28 11 3 20 14
20 24 0 10 3 21 6 24 9 9 24 -1 24 -16z m-400 -22 c0 -5 -5 -3 -10 5 -5 8 -10
20 -10 25 0 6 5 3 10 -5 5 -8 10 -19 10 -25z m350 27 c0 -4 -9 -8 -20 -8 -11
0 -20 4 -20 8 0 4 9 8 20 8 11 0 20 -4 20 -8z m-50 -32 c0 12 3 11 11 -3 8
-14 8 -22 0 -30 -8 -8 -11 -7 -11 2 0 8 -6 11 -16 7 -12 -5 -15 -2 -10 10 3 8
6 21 7 27 0 7 4 3 9 -8 6 -14 9 -15 10 -5z m-457 -14 c4 -10 1 -13 -9 -9 -9 3
-14 -1 -14 -13 0 -9 -3 -15 -6 -11 -8 7 5 47 16 47 4 0 10 -7 13 -14z m181
-17 c-6 -11 -24 -2 -24 11 0 5 7 7 15 4 8 -4 12 -10 9 -15z m122 -6 c-10 -10
-19 5 -10 18 6 11 8 11 12 0 2 -7 1 -15 -2 -18z m-46 -9 c0 -11 -6 -13 -20 -9
-16 5 -19 1 -19 -22 1 -44 -7 -87 -19 -108 -9 -16 -11 -17 -12 -4 0 40 24 135
38 147 21 16 32 15 32 -4z m-70 -26 c0 -16 -3 -19 -11 -11 -6 6 -8 16 -5 22
11 17 16 13 16 -11z m-80 -24 c0 -8 -4 -12 -10 -9 -5 3 -10 10 -10 16 0 5 5 9
10 9 6 0 10 -7 10 -16z m-3090 -82 c0 -15 -2 -15 -10 -2 -13 20 -13 33 0 25 6
-3 10 -14 10 -23z m-85 -1 c3 -5 1 -12 -5 -16 -5 -3 -10 1 -10 9 0 18 6 21 15
7z m3061 -26 c-6 -17 -26 -12 -26 6 0 6 5 7 10 4 6 -3 10 -1 10 6 0 7 3 10 6
6 4 -3 4 -13 0 -22z m11 -37 c-3 -8 -6 -5 -6 6 -1 11 2 17 5 13 3 -3 4 -12 1
-19z m-37 -48 c0 -5 -4 -10 -10 -10 -5 0 -10 5 -10 10 0 6 5 10 10 10 6 0 10
-4 10 -10z m-680 -94 c0 -2 3 -12 7 -21 5 -15 3 -16 -15 -6 -25 13 -29 31 -7
31 8 0 15 -2 15 -4z m500 -61 c0 -8 -4 -15 -10 -15 -5 0 -10 7 -10 15 0 8 5
15 10 15 6 0 10 -7 10 -15z m-150 -45 c0 -5 -2 -10 -4 -10 -3 0 -8 5 -11 10
-3 6 -1 10 4 10 6 0 11 -4 11 -10z m-180 -4 c0 -3 -4 -8 -10 -11 -5 -3 -10 -1
-10 4 0 6 5 11 10 11 6 0 10 -2 10 -4z m-30 -26 c0 -5 -4 -10 -10 -10 -5 0
-10 5 -10 10 0 6 5 10 10 10 6 0 10 -4 10 -10z m-2150 -600 c0 -5 8 -10 19
-10 13 0 23 -14 35 -47 10 -27 23 -61 28 -78 6 -16 15 -35 20 -41 5 -6 6 -18
3 -27 -4 -9 4 -22 23 -35 26 -19 28 -25 23 -59 -5 -29 -11 -39 -29 -41 -21 -3
-32 -22 -12 -22 6 0 10 -9 10 -21 0 -15 -5 -19 -19 -14 -14 4 -20 -1 -25 -19
-4 -16 -11 -23 -20 -20 -8 3 -17 1 -20 -5 -7 -11 -66 15 -66 29 0 4 -8 6 -18
3 -14 -3 -23 5 -35 30 -10 21 -29 40 -48 47 -31 13 -31 14 -25 72 4 38 2 57
-4 53 -12 -8 -13 -9 4 45 11 34 15 39 16 20 1 -24 1 -24 12 -5 14 24 29 35 40
29 4 -3 8 4 8 15 0 11 5 23 10 26 6 4 10 15 8 25 -2 10 6 28 17 39 22 21 45
27 45 11z m210 -366 c0 -8 -4 -12 -10 -9 -5 3 -10 10 -10 16 0 5 5 9 10 9 6 0
10 -7 10 -16z m1985 -494 c3 -5 -1 -10 -10 -10 -9 0 -13 5 -10 10 3 6 8 10 10
10 2 0 7 -4 10 -10z m45 -10 c0 -5 -4 -10 -9 -10 -6 0 -13 5 -16 10 -3 6 1 10
9 10 9 0 16 -4 16 -10z m-257 -354 c10 -8 17 -27 17 -48 0 -31 3 -35 25 -35
15 0 25 5 25 13 0 8 5 14 10 14 6 0 10 -5 10 -11 0 -7 9 -5 24 5 40 26 77 -4
60 -49 -5 -12 -4 -16 3 -12 6 4 14 1 16 -5 3 -7 6 1 6 19 1 30 22 63 41 63 14
0 31 -37 24 -54 -4 -11 0 -14 15 -13 12 1 21 5 21 10 0 4 6 5 13 0 14 -9 9 -8
65 -18 24 -4 46 -14 49 -21 3 -8 11 -14 19 -14 8 0 14 -9 14 -20 0 -12 5 -17
14 -14 10 4 12 -2 9 -23 l-4 -28 14 24 15 25 17 -35 c10 -19 20 -29 22 -22 3
7 17 -3 35 -23 24 -27 33 -32 40 -22 6 8 7 3 3 -17 l-7 -30 26 24 c34 32 46
19 18 -18 -15 -21 -18 -31 -9 -35 8 -3 7 -9 -5 -19 -22 -17 -23 -27 -4 -27 8
0 22 -21 32 -47 9 -27 21 -52 26 -57 14 -17 9 -28 -11 -21 -15 5 -18 1 -13
-20 2 -15 0 -25 -7 -25 -6 0 -11 9 -11 20 0 11 -4 20 -10 20 -6 0 -10 -30 -10
-69 0 -39 -4 -72 -8 -75 -5 -3 -7 9 -6 27 2 18 1 24 -2 15 -8 -28 -25 -21 -18
7 3 14 3 33 0 42 -6 15 -8 15 -16 3 -7 -11 -10 -7 -10 17 0 17 -4 34 -9 37 -5
3 -8 -11 -7 -32 1 -33 -2 -37 -21 -34 -20 3 -21 1 -10 -27 13 -36 9 -42 -21
-34 -22 5 -32 25 -10 20 6 -1 12 14 14 36 2 26 -1 37 -9 34 -7 -2 -11 -15 -9
-28 2 -19 1 -21 -7 -9 -6 8 -11 11 -11 6 0 -5 -6 -3 -14 3 -8 6 -20 10 -27 9
-9 -2 -14 6 -13 19 0 12 -3 20 -7 17 -4 -2 -10 6 -12 18 -2 13 -4 6 -3 -16 1
-35 -2 -39 -26 -42 -19 -2 -28 2 -28 12 0 8 -5 14 -11 14 -6 0 -8 -9 -4 -21 5
-15 4 -19 -4 -14 -7 4 -18 2 -25 -4 -10 -8 -17 -7 -26 4 -11 13 -15 13 -22 3
-8 -10 -11 -10 -15 -1 -5 14 -48 8 -70 -10 -10 -7 -13 -3 -13 17 0 16 -4 25
-10 21 -5 -3 -10 1 -10 9 0 10 -6 13 -15 10 -11 -5 -13 -2 -9 10 3 9 1 16 -5
16 -14 0 -14 -16 0 -41 10 -19 9 -20 -11 -9 -19 10 -22 18 -17 56 4 39 3 42
-9 27 -13 -17 -13 -17 -14 0 0 18 -20 24 -20 6 0 -8 -5 -7 -15 1 -18 15 -19
14 -34 -25 -9 -25 -10 -26 -7 -5 2 14 7 40 12 59 5 24 4 32 -4 27 -6 -4 -8
-14 -5 -24 6 -14 4 -15 -9 -4 -13 10 -17 10 -22 -4 -9 -25 -7 -41 4 -24 9 13
10 13 10 0 0 -8 -4 -21 -9 -29 -7 -11 -10 -9 -15 7 -4 12 -17 29 -29 39 -12
10 -27 29 -34 43 -11 24 -12 25 -12 3 -2 -42 -19 -23 -26 27 l-7 51 -24 -16
c-23 -15 -24 -15 -25 12 l-2 28 -4 -27 c-4 -24 -33 -49 -33 -28 0 17 -28 11
-33 -7 -4 -16 -5 -16 -6 -1 0 9 4 20 9 23 15 9 12 25 -4 25 -8 0 -17 12 -21
28 l-8 27 -11 -35 c-9 -27 -16 -35 -33 -34 -13 1 -23 -5 -23 -12 0 -8 -6 -11
-14 -8 -8 3 -12 12 -9 20 3 8 0 14 -6 14 -6 0 -12 15 -12 33 -2 27 -2 28 -7 7
-4 -23 -5 -24 -13 -5 -6 17 -8 17 -8 3 -1 -10 -5 -18 -11 -18 -14 0 -13 23 2
38 9 9 3 12 -28 12 -21 0 -46 4 -54 10 -9 5 -19 5 -27 -2 -18 -14 -26 -5 -27
32 -1 30 -26 44 -26 15 0 -8 -4 -15 -10 -15 -5 0 -8 13 -7 30 1 16 5 30 8 30
8 0 18 48 11 55 -3 3 -12 -1 -20 -7 -13 -11 -14 -7 -7 30 6 38 5 41 -12 36
-14 -6 -15 -4 -6 6 16 17 33 4 33 -26 0 -13 2 -24 4 -24 2 0 11 -3 20 -6 21
-8 21 14 -1 38 -18 20 -12 22 35 9 26 -8 34 -7 38 4 3 8 12 11 20 8 8 -3 14 1
14 8 0 10 3 10 12 1 7 -7 18 -12 26 -12 8 0 22 -10 32 -22 14 -18 15 -27 7
-46 -8 -17 -8 -25 1 -31 7 -4 10 -16 6 -27 -4 -13 2 -10 22 11 l27 30 -7 -30
c-5 -21 -4 -26 3 -15 8 12 12 10 19 -10 7 -19 6 -26 -4 -28 -8 -2 -14 -7 -14
-12 0 -4 9 -6 20 -3 15 4 18 11 13 37 -3 17 -12 41 -20 54 -18 29 -23 108 -9
128 13 17 46 9 46 -11 0 -8 7 -21 16 -30 13 -12 14 -19 4 -30 -7 -8 -10 -22
-6 -30 3 -9 2 -14 -3 -11 -5 3 -11 -2 -13 -12 -8 -31 30 -24 49 9 37 62 109 7
115 -90 3 -39 21 -56 31 -28 6 18 -4 48 -14 41 -5 -3 -9 -1 -9 4 0 6 7 12 15
16 23 8 18 28 -5 21 -17 -5 -20 -2 -20 24 0 17 -5 31 -11 31 -7 0 -9 10 -5 24
8 31 -11 44 -29 20 -14 -18 -14 -18 -15 4 0 23 -25 31 -33 10 -4 -9 -6 -8 -6
2 -1 22 46 63 64 56 8 -3 15 -17 15 -31 0 -25 20 -37 20 -12 0 6 5 4 11 -5 5
-10 19 -18 30 -18 16 0 19 -5 14 -19 -7 -23 9 -36 22 -18 5 6 15 30 22 52 14
41 29 65 40 65 3 0 14 -7 24 -14z m927 -16 c0 -5 -4 -10 -10 -10 -5 0 -10 5
-10 10 0 6 5 10 10 10 6 0 10 -4 10 -10z m-1649 -94 c28 -27 40 -54 19 -41 -5
3 -10 1 -10 -4 0 -17 -40 -13 -41 4 -2 19 -3 25 -13 52 -4 13 -4 28 0 35 6 9
9 8 12 -2 3 -8 18 -28 33 -44z m9 44 c0 -5 -4 -10 -10 -10 -5 0 -10 5 -10 10
0 6 5 10 10 10 6 0 10 -4 10 -10z m319 -44 c-9 -8 -10 -7 -5 7 3 10 7 26 7 35
1 9 4 6 6 -7 3 -13 -1 -28 -8 -35z m-440 -21 c-1 -30 -6 -55 -10 -55 -5 0 -9
11 -9 24 0 14 -4 28 -10 31 -5 3 -10 17 -10 31 0 17 5 24 20 24 18 0 20 -6 19
-55z m153 -97 c-9 -9 -12 -7 -12 12 0 19 3 21 12 12 9 -9 9 -15 0 -24z m1378
-109 c-13 -23 -3 -102 11 -93 5 3 9 -6 9 -20 0 -14 -4 -28 -10 -31 -5 -3 -10
3 -10 15 0 12 -4 19 -9 16 -5 -3 -12 14 -15 39 -5 33 -3 50 10 70 20 30 29 33
14 4z m47 -11 c-3 -8 -6 -5 -6 6 -1 11 2 17 5 13 3 -3 4 -12 1 -19z m-930 -75
c-3 -10 -5 -2 -5 17 0 19 2 27 5 18 2 -10 2 -26 0 -35z m943 21 c0 -8 -4 -12
-10 -9 -5 3 -10 10 -10 16 0 5 5 9 10 9 6 0 10 -7 10 -16z m377 -6 c-3 -8 -6
-5 -6 6 -1 11 2 17 5 13 3 -3 4 -12 1 -19z m-1400 -20 c-3 -7 -5 -2 -5 12 0
14 2 19 5 13 2 -7 2 -19 0 -25z m1040 -20 c-3 -7 -5 -2 -5 12 0 14 2 19 5 13
2 -7 2 -19 0 -25z m184 19 c-1 -12 -15 -9 -19 4 -3 6 1 10 8 8 6 -3 11 -8 11
-12z m-224 -19 c-3 -8 -6 -5 -6 6 -1 11 2 17 5 13 3 -3 4 -12 1 -19z m390 0
c-3 -8 -6 -5 -6 6 -1 11 2 17 5 13 3 -3 4 -12 1 -19z m-71 -12 c18 -19 18 -26
-3 -26 -9 0 -13 3 -10 7 4 3 2 12 -4 20 -15 18 -1 17 17 -1z m-66 -51 c0 -8
-4 -15 -10 -15 -5 0 -7 7 -4 15 4 8 8 15 10 15 2 0 4 -7 4 -15z m138 -1 c26
-18 29 -34 5 -34 -9 0 -24 -7 -34 -16 -25 -22 -49 -11 -47 21 3 29 15 33 21 8
3 -14 6 -11 11 10 9 31 14 33 44 11z m-172 -21 c-10 -10 -19 5 -10 18 6 11 8
11 12 0 2 -7 1 -15 -2 -18z m82 -24 c4 -24 4 -24 -16 -4 -20 21 -19 39 1 32 7
-2 14 -14 15 -28z m-260 -7 c2 -14 -2 -22 -12 -22 -19 0 -28 14 -20 35 9 21
28 14 32 -13z m230 -16 c2 -9 -1 -16 -7 -16 -6 0 -11 7 -11 15 0 18 -16 20
-26 3 -4 -6 -2 -14 4 -16 7 -2 12 -13 12 -25 -1 -22 -1 -22 -15 -3 -15 20 -20
58 -9 69 10 10 49 -9 52 -27z m-78 -7 c0 -10 -4 -19 -10 -19 -5 0 -10 12 -10
26 0 14 4 23 10 19 6 -3 10 -15 10 -26z m209 -5 c3 -16 1 -17 -13 -5 -19 16
-21 34 -3 29 6 -3 14 -13 16 -24z m-427 -6 c-7 -7 -12 -8 -12 -2 0 14 12 26
19 19 2 -3 -1 -11 -7 -17z m-41 -11 c-1 -4 -1 -16 -1 -27 0 -11 -4 -20 -10
-20 -5 0 -10 14 -10 31 0 17 5 29 11 27 6 -2 10 -7 10 -11z m108 -64 l1 -23
-20 20 c-17 17 -18 23 -8 40 12 18 13 19 20 2 3 -9 7 -27 7 -39z m-192 10 c-3
-10 -5 -4 -5 12 0 17 2 24 5 18 2 -7 2 -21 0 -30z m253 27 c0 -6 -7 -13 -16
-17 -9 -3 -11 -8 -6 -12 7 -4 7 -20 3 -41 -9 -39 -17 -28 -24 35 -4 37 -2 41
19 43 13 1 24 -3 24 -8z m195 -60 c10 -9 15 -9 15 -1 0 6 5 11 11 11 8 0 8 -4
0 -14 -6 -7 -9 -22 -5 -32 5 -16 4 -16 -5 -4 -9 13 -11 12 -11 -3 0 -11 -5
-17 -12 -14 -7 2 -12 11 -10 20 1 8 -2 18 -8 22 -5 3 -10 25 -9 48 1 42 1 42
10 11 5 -17 16 -37 24 -44z m-75 39 c0 -6 -4 -7 -10 -4 -5 3 -10 11 -10 16 0
6 5 7 10 4 6 -3 10 -11 10 -16z m-256 2 c3 -5 -5 -16 -19 -25 -23 -15 -25 -15
-25 -1 0 9 5 13 10 10 6 -3 10 1 10 9 0 17 15 22 24 7z m273 -23 c-3 -8 -6 -5
-6 6 -1 11 2 17 5 13 3 -3 4 -12 1 -19z m-257 -12 c0 -3 -4 -8 -10 -11 -5 -3
-10 -1 -10 4 0 6 5 11 10 11 6 0 10 -2 10 -4z m265 -26 c3 -5 1 -10 -4 -10 -6
0 -11 5 -11 10 0 6 2 10 4 10 3 0 8 -4 11 -10z m-169 -67 c-11 -11 -17 4 -9
23 7 18 8 18 11 1 2 -10 1 -21 -2 -24z m117 14 c3 -8 1 -20 -4 -28 -6 -10 -9
-7 -9 14 0 29 5 35 13 14z m154 -9 c-3 -8 -6 -5 -6 6 -1 11 2 17 5 13 3 -3 4
-12 1 -19z m-141 -65 c-10 -10 -19 5 -10 18 6 11 8 11 12 0 2 -7 1 -15 -2 -18z
m44 2 c0 -14 -4 -25 -9 -25 -4 0 -6 11 -3 25 2 14 6 25 8 25 2 0 4 -11 4 -25z
m195 -23 c0 -37 -23 -53 -33 -23 -3 8 0 11 6 7 6 -3 14 -1 18 5 4 6 -1 16 -10
21 -22 12 -21 37 2 31 13 -3 18 -14 17 -41z m-49 -10 c-12 -11 -18 7 -10 30
l8 23 4 -23 c2 -13 1 -26 -2 -30z m-108 -33 c4 -11 2 -11 -8 -2 -7 6 -19 9
-26 6 -8 -3 -14 1 -14 11 0 12 5 13 22 7 12 -4 24 -14 26 -22z m-78 -5 c0 -8
-5 -12 -10 -9 -6 4 -8 11 -5 16 9 14 15 11 15 -7z m230 -24 c0 -5 -4 -10 -10
-10 -5 0 -10 5 -10 10 0 6 5 10 10 10 6 0 10 -4 10 -10z m-63 -72 c-3 -7 -5
-2 -5 12 0 14 2 19 5 13 2 -7 2 -19 0 -25z m-230 -35 c-3 -10 -5 -4 -5 12 0
17 2 24 5 18 2 -7 2 -21 0 -30z m43 27 c0 -5 -4 -10 -10 -10 -5 0 -10 5 -10
10 0 6 5 10 10 10 6 0 10 -4 10 -10z m-360 -200 c0 -5 -4 -10 -10 -10 -5 0
-10 5 -10 10 0 6 5 10 10 10 6 0 10 -4 10 -10z m-120 -119 c0 -5 -9 -7 -20 -4
-11 3 -20 7 -20 9 0 2 9 4 20 4 11 0 20 -4 20 -9z m-133 -23 c-3 -8 -6 -5 -6
6 -1 11 2 17 5 13 3 -3 4 -12 1 -19z m-428 -85 c-1 -37 -1 -37 -8 -8 -7 28 -5
45 5 45 2 0 3 -17 3 -37z m-40 -76 c1 -12 -3 -16 -11 -10 -7 4 -22 7 -33 8
-14 0 -20 7 -21 23 -1 18 -1 19 3 2 5 -24 28 -27 37 -4 9 23 7 36 -3 29 -16
-9 -23 15 -9 32 11 14 14 11 25 -23 6 -21 12 -47 12 -57z m58 31 c-3 -8 -6 -5
-6 6 -1 11 2 17 5 13 3 -3 4 -12 1 -19z m-7 -148 c0 -5 -2 -10 -4 -10 -3 0 -8
5 -11 10 -3 6 -1 10 4 10 6 0 11 -4 11 -10z"/>
<path d="M3752 5975 c-10 -21 -9 -25 3 -25 8 0 15 4 15 9 0 5 3 16 6 25 10 26
-12 18 -24 -9z"/>
<path d="M3695 5970 c3 -5 8 -10 11 -10 2 0 4 5 4 10 0 6 -5 10 -11 10 -5 0
-7 -4 -4 -10z"/>
<path d="M4010 1620 c0 -5 5 -10 11 -10 5 0 7 5 4 10 -3 6 -8 10 -11 10 -2 0
-4 -4 -4 -10z"/>
<path d="M4090 1585 c10 -12 10 -16 -1 -20 -9 -3 -15 -22 -15 -48 -1 -23 0
-32 3 -19 3 15 10 22 19 18 9 -4 15 2 16 17 0 12 2 28 2 35 1 7 8 17 16 22 11
7 6 10 -19 10 -28 0 -32 -2 -21 -15z"/>
<path d="M3996 1574 c-9 -22 -8 -24 9 -18 8 4 15 12 15 20 0 19 -16 18 -24 -2z"/>
<path d="M4170 1580 c0 -5 4 -10 9 -10 6 0 13 5 16 10 3 6 -1 10 -9 10 -9 0
-16 -4 -16 -10z"/>
<path d="M4220 1565 c0 -15 18 -40 24 -34 3 3 -1 14 -9 25 -8 10 -14 15 -15 9z"/>
<path d="M3780 1511 c0 -6 5 -13 10 -16 6 -3 10 1 10 9 0 9 -4 16 -10 16 -5 0
-10 -4 -10 -9z"/>
<path d="M3835 1479 c-4 -6 -5 -12 -2 -15 2 -3 7 2 10 11 7 17 1 20 -8 4z"/>
<path d="M3710 1430 c0 -5 14 -10 31 -10 17 0 28 4 24 10 -3 6 -17 10 -31 10
-13 0 -24 -4 -24 -10z"/>
<path d="M3670 1423 c0 -5 4 -14 9 -21 6 -10 10 -9 14 7 3 14 0 21 -9 21 -8 0
-14 -3 -14 -7z"/>
<path d="M3813 1395 c-7 -8 -13 -17 -13 -20 0 -10 29 -5 36 6 10 17 -10 29
-23 14z"/>
<path d="M3861 1384 c0 -11 3 -14 6 -6 3 7 2 16 -1 19 -3 4 -6 -2 -5 -13z"/>
<path d="M4621 1384 c0 -11 3 -14 6 -6 3 7 2 16 -1 19 -3 4 -6 -2 -5 -13z"/>
<path d="M3710 1375 c0 -9 5 -15 11 -13 6 2 11 8 11 13 0 5 -5 11 -11 13 -6 2
-11 -4 -11 -13z"/>
<path d="M3970 1373 c0 -4 5 -15 10 -23 8 -13 10 -13 10 2 0 9 -4 20 -10 23
-5 3 -10 3 -10 -2z"/>
<path d="M3931 1314 c0 -11 3 -14 6 -6 3 7 2 16 -1 19 -3 4 -6 -2 -5 -13z"/>
<path d="M4476 1305 c-3 -8 -1 -15 4 -15 6 0 10 7 10 15 0 8 -2 15 -4 15 -2 0
-6 -7 -10 -15z"/>
<path d="M4000 1240 c0 -11 5 -20 10 -20 6 0 10 9 10 20 0 11 -4 20 -10 20 -5
0 -10 -9 -10 -20z"/>
<path d="M4716 1224 c-4 -9 -3 -21 2 -26 12 -12 23 15 12 31 -5 9 -9 8 -14 -5z"/>
<path d="M4170 1214 c0 -8 5 -12 10 -9 6 3 10 10 10 16 0 5 -4 9 -10 9 -5 0
-10 -7 -10 -16z"/>
<path d="M4485 1220 c-3 -5 1 -10 10 -10 9 0 13 5 10 10 -3 6 -8 10 -10 10 -2
0 -7 -4 -10 -10z"/>
<path d="M4627 1213 c-4 -3 -7 -13 -7 -22 1 -13 3 -13 11 2 11 19 8 33 -4 20z"/>
<path d="M4678 1214 c-3 -5 -2 -20 2 -34 6 -21 8 -22 14 -8 8 18 -8 57 -16 42z"/>
<path d="M4310 1176 c0 -8 -6 -17 -12 -19 -8 -4 -7 -6 3 -6 9 -1 19 8 22 19 3
11 1 20 -4 20 -5 0 -9 -6 -9 -14z"/>
<path d="M4245 1160 c-3 -5 1 -10 10 -10 9 0 13 5 10 10 -3 6 -8 10 -10 10 -2
0 -7 -4 -10 -10z"/>
<path d="M4540 1146 c-5 -5 -10 -16 -10 -23 0 -11 6 -9 25 4 13 10 25 21 25
24 0 10 -29 6 -40 -5z"/>
<path d="M4680 1131 c0 -11 5 -23 10 -26 6 -4 10 5 10 19 0 14 -4 26 -10 26
-5 0 -10 -9 -10 -19z"/>
<path d="M6675 7710 c3 -5 8 -10 11 -10 2 0 4 5 4 10 0 6 -5 10 -11 10 -5 0
-7 -4 -4 -10z"/>
<path d="M6760 7630 c0 -5 5 -10 11 -10 5 0 7 5 4 10 -3 6 -8 10 -11 10 -2 0
-4 -4 -4 -10z"/>
<path d="M7065 7611 c-3 -5 -1 -12 5 -16 5 -3 10 1 10 9 0 18 -6 21 -15 7z"/>
<path d="M6730 7600 c0 -5 5 -10 10 -10 6 0 10 5 10 10 0 6 -4 10 -10 10 -5 0
-10 -4 -10 -10z"/>
<path d="M6811 7594 c0 -11 3 -14 6 -6 3 7 2 16 -1 19 -3 4 -6 -2 -5 -13z"/>
<path d="M6840 7490 c0 -19 3 -21 12 -12 9 9 9 15 0 24 -9 9 -12 7 -12 -12z"/>
<path d="M6860 7458 c0 -19 2 -20 10 -8 13 19 13 30 0 30 -5 0 -10 -10 -10
-22z"/>
<path d="M6891 7464 c0 -11 3 -14 6 -6 3 7 2 16 -1 19 -3 4 -6 -2 -5 -13z"/>
<path d="M6595 7376 c-16 -25 -14 -46 6 -46 6 0 9 8 7 18 -1 9 1 23 6 30 16
25 -3 24 -19 -2z"/>
<path d="M6876 7378 c-16 -52 -15 -58 15 -58 19 0 29 5 29 15 0 8 -9 15 -21
15 -16 0 -19 4 -14 20 3 11 4 20 0 20 -3 0 -7 -6 -9 -12z"/>
<path d="M6631 7344 c0 -11 3 -14 6 -6 3 7 2 16 -1 19 -3 4 -6 -2 -5 -13z"/>
<path d="M6703 7295 c0 -27 2 -38 4 -22 2 15 2 37 0 50 -2 12 -4 0 -4 -28z"/>
<path d="M6673 7305 c7 -13 14 -20 15 -14 5 14 -6 39 -17 39 -5 0 -4 -11 2
-25z"/>
<path d="M6997 7322 c-23 -5 -18 -36 6 -40 19 -4 35 25 21 37 -5 4 -17 6 -27
3z"/>
<path d="M6921 7294 c0 -11 3 -14 6 -6 3 7 2 16 -1 19 -3 4 -6 -2 -5 -13z"/>
<path d="M6640 7171 c0 -6 4 -13 10 -16 6 -3 7 1 4 9 -7 18 -14 21 -14 7z"/>
<path d="M6691 7114 c0 -11 3 -14 6 -6 3 7 2 16 -1 19 -3 4 -6 -2 -5 -13z"/>
<path d="M6256 7015 c-3 -9 0 -15 9 -15 16 0 20 16 6 24 -5 3 -11 -1 -15 -9z"/>
<path d="M6610 6995 c0 -8 2 -15 4 -15 2 0 6 7 10 15 3 8 1 15 -4 15 -6 0 -10
-7 -10 -15z"/>
<path d="M8001 6984 c0 -11 3 -14 6 -6 3 7 2 16 -1 19 -3 4 -6 -2 -5 -13z"/>
<path d="M7981 6964 c0 -11 3 -14 6 -6 3 7 2 16 -1 19 -3 4 -6 -2 -5 -13z"/>
<path d="M6371 6924 c0 -11 3 -14 6 -6 3 7 2 16 -1 19 -3 4 -6 -2 -5 -13z"/>
<path d="M6641 6828 c1 -7 5 -24 9 -38 8 -24 8 -24 9 7 1 17 -3 35 -9 38 -5 3
-10 0 -9 -7z"/>
<path d="M6195 6650 c3 -5 8 -10 11 -10 2 0 4 5 4 10 0 6 -5 10 -11 10 -5 0
-7 -4 -4 -10z"/>
<path d="M6233 6627 c10 -7 24 -30 32 -52 8 -22 19 -39 26 -37 7 2 16 -3 21
-10 5 -7 8 -8 5 -3 -21 52 -33 75 -39 75 -4 0 -8 6 -8 14 0 14 -20 26 -43 26
-6 0 -3 -6 6 -13z"/>
<path d="M8125 6599 c-4 -6 -5 -12 -2 -15 2 -3 7 2 10 11 7 17 1 20 -8 4z"/>
<path d="M6346 6515 c4 -8 8 -15 10 -15 2 0 4 7 4 15 0 8 -4 15 -10 15 -5 0
-7 -7 -4 -15z"/>
<path d="M5660 6490 c0 -15 4 -30 9 -35 5 -6 12 -19 15 -30 3 -11 3 -2 0 20
-7 51 -23 81 -24 45z"/>
<path d="M6310 6499 c0 -5 5 -7 10 -4 6 3 10 8 10 11 0 2 -4 4 -10 4 -5 0 -10
-5 -10 -11z"/>
<path d="M5715 6419 c-4 -6 0 -18 9 -27 15 -15 16 -15 16 5 0 25 -15 38 -25
22z"/>
<path d="M6280 6401 c-7 -15 -7 -21 0 -21 12 0 25 28 17 36 -3 3 -10 -4 -17
-15z"/>
<path d="M5668 6341 c-10 -20 -18 -43 -18 -49 0 -7 -4 -12 -9 -12 -5 0 -7 -8
-4 -19 3 -13 11 -17 24 -14 14 4 16 9 9 23 -12 22 5 76 26 84 17 7 19 26 2 26
-7 0 -21 -18 -30 -39z"/>
<path d="M8211 6364 c0 -11 3 -14 6 -6 3 7 2 16 -1 19 -3 4 -6 -2 -5 -13z"/>
<path d="M5720 6345 c0 -8 5 -15 10 -15 6 0 10 7 10 15 0 8 -4 15 -10 15 -5 0
-10 -7 -10 -15z"/>
<path d="M5861 6344 c0 -11 3 -14 6 -6 3 7 2 16 -1 19 -3 4 -6 -2 -5 -13z"/>
<path d="M5881 6335 c0 -16 4 -37 9 -45 8 -12 10 -11 9 5 -1 11 -5 31 -9 45
-8 24 -8 24 -9 -5z"/>
<path d="M6430 6348 c0 -9 5 -20 10 -23 13 -8 13 5 0 25 -8 13 -10 13 -10 -2z"/>
<path d="M5746 6309 c-10 -10 -16 -23 -14 -30 2 -7 12 0 22 16 21 32 18 39 -8
14z"/>
<path d="M6110 6310 c0 -5 5 -10 11 -10 5 0 7 5 4 10 -3 6 -8 10 -11 10 -2 0
-4 -4 -4 -10z"/>
<path d="M1657 6304 c-4 -4 -7 -17 -7 -28 1 -19 1 -20 11 -3 11 19 8 43 -4 31z"/>
<path d="M5707 6293 c-2 -5 -7 -20 -11 -35 -5 -21 -3 -28 8 -28 9 0 14 11 14
35 0 35 -3 42 -11 28z"/>
<path d="M6150 6259 c0 -5 5 -7 10 -4 6 3 10 8 10 11 0 2 -4 4 -10 4 -5 0 -10
-5 -10 -11z"/>
<path d="M5750 6230 c0 -5 5 -10 11 -10 5 0 7 5 4 10 -3 6 -8 10 -11 10 -2 0
-4 -4 -4 -10z"/>
<path d="M2386 6201 c-3 -4 6 -19 19 -31 27 -26 35 -9 11 23 -15 19 -22 21
-30 8z"/>
<path d="M5680 6196 c0 -8 3 -21 6 -30 8 -21 44 -3 44 22 0 13 -2 14 -9 4 -7
-11 -9 -11 -14 2 -8 20 -27 21 -27 2z"/>
<path d="M5773 6173 c-7 -3 -12 -19 -12 -36 1 -19 3 -24 6 -14 5 18 5 18 19 0
12 -16 13 -14 7 17 -7 41 -5 38 -20 33z"/>
<path d="M5657 6136 c-8 -20 17 -53 28 -36 4 7 2 16 -5 20 -7 4 -9 13 -6 19 4
6 3 11 -2 11 -6 0 -12 -6 -15 -14z"/>
<path d="M5736 6135 c-3 -8 -1 -15 4 -15 6 0 10 7 10 15 0 8 -2 15 -4 15 -2 0
-6 -7 -10 -15z"/>
<path d="M5700 6099 c0 -5 5 -7 10 -4 6 3 10 8 10 11 0 2 -4 4 -10 4 -5 0 -10
-5 -10 -11z"/>
<path d="M5774 6076 c-4 -9 -12 -15 -19 -12 -14 5 -9 -30 5 -39 10 -6 35 53
27 62 -4 3 -9 -2 -13 -11z"/>
<path d="M6061 5914 c0 -11 3 -14 6 -6 3 7 2 16 -1 19 -3 4 -6 -2 -5 -13z"/>
<path d="M8271 5784 c0 -11 3 -14 6 -6 3 7 2 16 -1 19 -3 4 -6 -2 -5 -13z"/>
<path d="M8256 5704 c-4 -9 -2 -22 3 -28 5 -6 11 -20 14 -31 2 -11 5 1 6 28 1
46 -11 63 -23 31z"/>
<path d="M5990 5610 c0 -5 5 -10 10 -10 6 0 10 5 10 10 0 6 -4 10 -10 10 -5 0
-10 -4 -10 -10z"/>
<path d="M6002 5550 c0 -14 2 -19 5 -12 2 6 2 18 0 25 -3 6 -5 1 -5 -13z"/>
<path d="M1400 5541 c0 -5 5 -13 10 -16 6 -3 10 -2 10 4 0 5 -4 13 -10 16 -5
3 -10 2 -10 -4z"/>
<path d="M6020 5510 c0 -5 5 -10 10 -10 6 0 10 5 10 10 0 6 -4 10 -10 10 -5 0
-10 -4 -10 -10z"/>
<path d="M6060 5475 c0 -5 5 -17 10 -25 5 -8 10 -10 10 -5 0 6 -5 17 -10 25
-5 8 -10 11 -10 5z"/>
<path d="M5915 5441 c-3 -6 2 -14 11 -19 13 -7 14 -13 5 -31 -8 -14 -8 -21 -1
-21 14 0 31 44 19 48 -5 2 -9 10 -9 18 0 16 -16 19 -25 5z"/>
<path d="M5962 5345 c0 -16 2 -22 5 -12 2 9 2 23 0 30 -3 6 -5 -1 -5 -18z"/>
<path d="M3840 5275 c0 -8 5 -15 11 -15 6 0 10 -15 9 -32 -3 -49 1 -57 10 -20
5 20 3 42 -4 57 -12 28 -26 33 -26 10z"/>
<path d="M3801 5263 c-9 -10 -10 -18 -3 -25 7 -7 12 -3 17 12 9 27 4 32 -14
13z"/>
<path d="M6020 5219 c0 -11 5 -17 10 -14 6 3 10 13 10 21 0 8 -4 14 -10 14 -5
0 -10 -9 -10 -21z"/>
<path d="M6051 5224 c0 -11 3 -14 6 -6 3 7 2 16 -1 19 -3 4 -6 -2 -5 -13z"/>
<path d="M6085 5210 c-3 -5 -1 -10 4 -10 6 0 11 5 11 10 0 6 -2 10 -4 10 -3 0
-8 -4 -11 -10z"/>
<path d="M3781 5174 c0 -11 3 -14 6 -6 3 7 2 16 -1 19 -3 4 -6 -2 -5 -13z"/>
<path d="M6058 5148 c-4 -10 -3 -20 2 -23 6 -4 10 -17 10 -31 l0 -24 21 21
c17 17 18 25 10 47 l-9 27 -1 -29 c-1 -32 -16 -26 -23 9 -3 18 -4 18 -10 3z"/>
<path d="M6271 5094 c0 -11 3 -14 6 -6 3 7 2 16 -1 19 -3 4 -6 -2 -5 -13z"/>
<path d="M6051 5064 c0 -11 3 -14 6 -6 3 7 2 16 -1 19 -3 4 -6 -2 -5 -13z"/>
<path d="M3715 5020 c0 -16 3 -30 8 -30 4 0 7 14 7 30 0 17 -3 30 -7 30 -5 0
-8 -13 -8 -30z"/>
<path d="M6042 5000 c0 -14 2 -19 5 -12 2 6 2 18 0 25 -3 6 -5 1 -5 -13z"/>
<path d="M3648 5003 c6 -2 18 -2 25 0 6 3 1 5 -13 5 -14 0 -19 -2 -12 -5z"/>
<path d="M6106 4965 c-4 -22 -11 -42 -16 -45 -4 -3 -4 -15 1 -28 12 -33 54
-27 54 7 0 13 -5 26 -12 28 -7 3 -9 -3 -6 -16 3 -12 1 -21 -4 -21 -18 0 -21
11 -11 52 5 22 7 46 5 52 -2 6 -7 -7 -11 -29z"/>
<path d="M6057 4964 c-10 -10 -9 -52 2 -58 12 -8 22 34 12 51 -4 7 -10 10 -14
7z"/>
<path d="M6170 4949 c-11 -8 -12 -12 -2 -16 6 -2 10 -9 6 -14 -3 -5 0 -9 5 -9
6 0 11 11 11 25 0 28 0 28 -20 14z"/>
<path d="M6222 4885 c0 -16 2 -22 5 -12 2 9 2 23 0 30 -3 6 -5 -1 -5 -18z"/>
<path d="M3581 4874 c0 -11 3 -14 6 -6 3 7 2 16 -1 19 -3 4 -6 -2 -5 -13z"/>
<path d="M6410 4860 c0 -5 5 -10 10 -10 6 0 10 5 10 10 0 6 -4 10 -10 10 -5 0
-10 -4 -10 -10z"/>
<path d="M6170 4838 c0 -15 5 -30 10 -33 13 -8 13 25 0 45 -8 12 -10 9 -10
-12z"/>
<path d="M6450 4850 c0 -5 5 -10 10 -10 6 0 10 5 10 10 0 6 -4 10 -10 10 -5 0
-10 -4 -10 -10z"/>
<path d="M3572 4830 c-1 -14 3 -43 7 -65 l9 -40 0 40 c0 22 -4 51 -8 65 l-8
25 0 -25z"/>
<path d="M6154 4788 c3 -15 26 -23 26 -8 0 6 -4 9 -9 6 -5 -4 -12 -1 -14 4 -3
6 -4 5 -3 -2z"/>
<path d="M6204 4775 c-3 -8 -3 -19 1 -26 4 -6 1 -15 -6 -20 -7 -4 -10 -11 -6
-16 11 -11 27 17 27 50 0 29 -7 35 -16 12z"/>
<path d="M6340 4734 c0 -8 5 -12 10 -9 6 3 10 10 10 16 0 5 -4 9 -10 9 -5 0
-10 -7 -10 -16z"/>
<path d="M6221 4694 c0 -11 3 -14 6 -6 3 7 2 16 -1 19 -3 4 -6 -2 -5 -13z"/>
<path d="M6282 4660 c0 -14 2 -19 5 -12 2 6 2 18 0 25 -3 6 -5 1 -5 -13z"/>
<path d="M6321 4634 c0 -11 3 -14 6 -6 3 7 2 16 -1 19 -3 4 -6 -2 -5 -13z"/>
<path d="M6505 4640 c3 -5 8 -10 11 -10 2 0 4 5 4 10 0 6 -5 10 -11 10 -5 0
-7 -4 -4 -10z"/>
<path d="M6271 4614 c0 -11 3 -14 6 -6 3 7 2 16 -1 19 -3 4 -6 -2 -5 -13z"/>
<path d="M6192 4570 c0 -19 2 -27 5 -17 2 9 2 25 0 35 -3 9 -5 1 -5 -18z"/>
<path d="M6230 4580 c0 -19 3 -21 12 -12 9 9 9 15 0 24 -9 9 -12 7 -12 -12z"/>
<path d="M5906 4581 c-3 -5 1 -14 9 -21 13 -10 15 -9 15 9 0 21 -14 28 -24 12z"/>
<path d="M6271 4574 c0 -11 3 -14 6 -6 3 7 2 16 -1 19 -3 4 -6 -2 -5 -13z"/>
<path d="M5731 4564 c0 -11 3 -14 6 -6 3 7 2 16 -1 19 -3 4 -6 -2 -5 -13z"/>
<path d="M6298 4519 c-10 -6 -18 -20 -18 -32 0 -16 3 -18 9 -9 6 10 12 7 25
-13 17 -26 17 -26 -13 -38 -34 -13 -51 -38 -20 -30 13 4 19 0 19 -11 0 -9 6
-16 14 -16 17 0 28 79 14 97 -6 7 -8 16 -5 20 2 4 2 16 -2 25 -4 13 -10 14
-23 7z"/>
<path d="M3580 4511 c0 -6 4 -13 10 -16 6 -3 7 1 4 9 -7 18 -14 21 -14 7z"/>
<path d="M6505 4510 c3 -5 8 -10 11 -10 2 0 4 5 4 10 0 6 -5 10 -11 10 -5 0
-7 -4 -4 -10z"/>
<path d="M1263 4494 c-15 -16 -16 -24 -4 -24 8 0 24 30 19 35 -2 2 -9 -3 -15
-11z"/>
<path d="M6120 4498 c0 -4 5 -10 11 -13 6 -4 8 -13 5 -21 -3 -8 -1 -14 5 -14
6 0 7 -4 4 -10 -3 -5 -2 -10 4 -10 5 0 11 -6 14 -12 2 -7 3 -4 1 7 -2 16 2 14
22 -10 13 -16 22 -36 19 -43 -3 -8 0 -10 6 -6 6 4 15 1 19 -6 4 -7 13 -9 19
-5 9 5 8 10 -3 18 -19 15 -10 71 10 63 10 -4 11 1 5 17 -6 16 -15 21 -32 19
-52 -8 -69 -4 -69 16 0 11 -7 18 -20 18 -11 0 -20 -4 -20 -8z m110 -52 c0 -2
-7 -6 -15 -10 -8 -3 -15 -1 -15 4 0 6 7 10 15 10 8 0 15 -2 15 -4z"/>
<path d="M6030 4488 c0 -7 7 -22 15 -32 8 -11 16 -31 16 -45 1 -21 3 -20 9 9
7 35 7 35 9 5 2 -51 17 -62 26 -19 5 29 3 41 -9 50 -9 6 -16 17 -16 25 0 8 -6
6 -15 -7 -14 -19 -14 -18 -15 4 0 12 -4 22 -10 22 -5 0 -10 -6 -10 -12z"/>
<path d="M6350 4490 c0 -5 5 -10 11 -10 5 0 7 5 4 10 -3 6 -8 10 -11 10 -2 0
-4 -4 -4 -10z"/>
<path d="M6540 4470 c0 -5 7 -10 15 -10 8 0 15 5 15 10 0 6 -7 10 -15 10 -8 0
-15 -4 -15 -10z"/>
<path d="M5790 4447 c0 -13 8 -31 18 -40 26 -24 36 -21 18 5 -9 12 -16 30 -16
40 0 10 -4 18 -10 18 -5 0 -10 -11 -10 -23z"/>
<path d="M5961 4403 c1 -53 6 -49 11 10 2 20 0 37 -4 37 -4 0 -8 -21 -7 -47z"/>
<path d="M6454 4419 c-12 -25 -14 -37 -5 -55 7 -17 7 -24 0 -24 -6 0 -13 9
-16 20 -3 11 -9 20 -14 20 -15 0 -10 -32 8 -45 9 -7 13 -17 9 -23 -10 -17 -67
43 -59 64 4 12 2 15 -8 12 -19 -6 -18 -29 4 -53 11 -12 16 -30 14 -42 -2 -13
0 -23 4 -23 5 0 9 -8 9 -17 0 -14 2 -15 9 -4 13 21 24 -5 11 -28 -12 -23 -13
-31 -2 -31 9 0 32 49 32 68 0 7 5 10 10 7 6 -3 10 -15 10 -26 0 -10 5 -19 10
-19 15 0 12 40 -5 56 -8 9 -20 12 -27 8 -6 -4 -3 5 8 19 22 30 34 34 34 10 0
-9 3 -14 6 -11 3 3 2 22 -2 43 -5 26 -11 35 -21 31 -11 -5 -13 -1 -7 17 4 12
11 24 15 25 12 5 11 32 -1 32 -5 0 -17 -14 -26 -31z"/>
<path d="M6526 4434 c-19 -18 -21 -31 -3 -17 6 6 19 12 27 15 9 3 10 7 3 11
-6 4 -19 0 -27 -9z"/>
<path d="M6026 4425 c4 -8 10 -15 15 -15 5 0 9 7 9 15 0 8 -7 15 -15 15 -9 0
-12 -6 -9 -15z"/>
<path d="M6384 4429 c-8 -13 15 -30 36 -26 8 1 16 11 19 22 3 17 1 18 -13 6
-10 -9 -16 -10 -16 -2 0 14 -17 14 -26 0z"/>
<path d="M1280 4414 c0 -8 5 -12 10 -9 6 3 10 10 10 16 0 5 -4 9 -10 9 -5 0
-10 -7 -10 -16z"/>
<path d="M5996 4422 c-2 -4 -1 -23 4 -42 l8 -35 1 43 c1 41 -3 50 -13 34z"/>
<path d="M6350 4420 c0 -5 5 -10 11 -10 5 0 7 5 4 10 -3 6 -8 10 -11 10 -2 0
-4 -4 -4 -10z"/>
<path d="M5871 4384 c0 -11 3 -14 6 -6 3 7 2 16 -1 19 -3 4 -6 -2 -5 -13z"/>
<path d="M6022 4380 c0 -14 2 -19 5 -12 2 6 2 18 0 25 -3 6 -5 1 -5 -13z"/>
<path d="M5892 4370 c0 -14 2 -19 5 -12 2 6 2 18 0 25 -3 6 -5 1 -5 -13z"/>
<path d="M5796 4344 c-11 -67 -8 -137 5 -128 5 3 8 31 7 62 -1 32 1 62 4 68 4
5 3 16 -1 23 -6 9 -11 0 -15 -25z"/>
<path d="M5831 4354 c0 -11 3 -14 6 -6 3 7 2 16 -1 19 -3 4 -6 -2 -5 -13z"/>
<path d="M5917 4353 c-5 -13 -3 -30 5 -42 14 -23 28 -28 28 -10 0 5 5 7 10 4
6 -4 10 6 10 22 0 22 -2 25 -10 13 -9 -13 -10 -13 -10 0 0 13 -2 13 -9 1 -7
-11 -10 -9 -13 10 -4 24 -4 24 -11 2z"/>
<path d="M6531 4354 c0 -11 3 -14 6 -6 3 7 2 16 -1 19 -3 4 -6 -2 -5 -13z"/>
<path d="M5842 4298 c-12 -71 -12 -98 0 -98 4 0 8 27 8 60 0 47 3 60 15 60 18
0 18 -5 5 -31 -14 -24 -5 -24 21 0 22 20 18 41 -7 41 -8 0 -14 7 -14 15 0 8
-4 15 -9 15 -5 0 -14 -28 -19 -62z"/>
<path d="M6300 4341 c-7 -15 -7 -21 0 -21 12 0 25 28 17 36 -3 3 -10 -4 -17
-15z"/>
<path d="M6066 4341 c-4 -7 -5 -15 -2 -18 9 -9 19 4 14 18 -4 11 -6 11 -12 0z"/>
<path d="M6190 4336 c0 -8 5 -18 10 -21 6 -3 10 3 10 14 0 12 -4 21 -10 21 -5
0 -10 -6 -10 -14z"/>
<path d="M6330 4332 c0 -5 9 -17 20 -27 23 -21 28 -2 6 21 -16 16 -26 18 -26
6z"/>
<path d="M6220 4319 c0 -4 -3 -16 -6 -26 -5 -15 -4 -15 5 -3 9 13 10 13 15 0
12 -38 16 -42 11 -12 -2 17 0 32 5 32 6 0 10 4 10 9 0 6 -9 9 -20 8 -11 -1
-20 -4 -20 -8z"/>
<path d="M1360 4310 c0 -5 5 -10 10 -10 6 0 10 5 10 10 0 6 -4 10 -10 10 -5 0
-10 -4 -10 -10z"/>
<path d="M6280 4295 c-9 -11 -10 -19 -3 -26 7 -7 12 -2 15 15 6 30 5 31 -12
11z"/>
<path d="M6320 4301 c0 -6 4 -13 10 -16 6 -3 7 1 4 9 -7 18 -14 21 -14 7z"/>
<path d="M5990 4279 c0 -15 18 -19 23 -6 3 8 -1 14 -9 14 -8 0 -14 -4 -14 -8z"/>
<path d="M6320 4262 c0 -4 13 -15 29 -25 35 -21 52 -6 19 17 -24 17 -48 21
-48 8z"/>
<path d="M5760 4217 c0 -15 -5 -27 -11 -27 -5 0 -7 -5 -3 -11 4 -8 12 -2 21
16 11 20 12 30 4 38 -8 8 -11 3 -11 -16z"/>
<path d="M6061 4204 c0 -11 3 -14 6 -6 3 7 2 16 -1 19 -3 4 -6 -2 -5 -13z"/>
<path d="M6031 4184 c0 -11 3 -14 6 -6 3 7 2 16 -1 19 -3 4 -6 -2 -5 -13z"/>
<path d="M6391 4184 c0 -11 3 -14 6 -6 3 7 2 16 -1 19 -3 4 -6 -2 -5 -13z"/>
<path d="M6001 4164 c0 -11 3 -14 6 -6 3 7 2 16 -1 19 -3 4 -6 -2 -5 -13z"/>
<path d="M5780 4154 c0 -8 5 -12 10 -9 6 4 8 11 5 16 -9 14 -15 11 -15 -7z"/>
<path d="M1470 4141 c0 -25 6 -27 13 -6 4 8 2 17 -3 20 -6 4 -10 -3 -10 -14z"/>
<path d="M5702 4140 c0 -8 4 -26 8 -40 6 -20 8 -21 8 -5 0 11 -3 29 -8 40 -5
12 -8 14 -8 5z"/>
<path d="M5740 4110 c0 -16 2 -30 4 -30 2 0 6 14 8 30 3 17 1 30 -4 30 -4 0
-8 -13 -8 -30z"/>
<path d="M5770 4120 c0 -5 5 -10 10 -10 6 0 10 5 10 10 0 6 -4 10 -10 10 -5 0
-10 -4 -10 -10z"/>
<path d="M5514 4107 c-2 -7 5 -33 16 -58 l21 -44 -3 38 c-3 26 0 37 9 37 11 0
11 4 1 20 -15 23 -36 26 -44 7z"/>
<path d="M5803 4085 c0 -22 2 -30 4 -17 2 12 2 30 0 40 -3 9 -5 -1 -4 -23z"/>
<path d="M5586 4074 c-31 -46 -25 -73 10 -39 13 13 24 30 24 37 0 8 3 9 10 2
12 -12 -6 -74 -21 -74 -14 0 -11 -20 5 -36 13 -12 16 -10 24 19 6 17 13 44 16
60 4 15 11 27 16 27 13 0 13 -16 -1 -42 -9 -18 -9 -20 4 -15 11 4 18 -1 22
-14 4 -11 8 -19 10 -17 8 8 -27 108 -36 102 -6 -3 -21 1 -34 10 -24 16 -25 15
-49 -20z m21 -6 c-3 -8 -6 -5 -6 6 -1 11 2 17 5 13 3 -3 4 -12 1 -19z"/>
<path d="M5480 3999 c0 -5 5 -7 10 -4 6 3 10 8 10 11 0 2 -4 4 -10 4 -5 0 -10
-5 -10 -11z"/>
<path d="M5581 3984 c0 -11 3 -14 6 -6 3 7 2 16 -1 19 -3 4 -6 -2 -5 -13z"/>
<path d="M5550 3976 c0 -8 4 -17 9 -20 5 -4 7 3 4 14 -6 23 -13 26 -13 6z"/>
<path d="M2210 3970 c0 -5 5 -10 11 -10 5 0 7 5 4 10 -3 6 -8 10 -11 10 -2 0
-4 -4 -4 -10z"/>
<path d="M5290 3955 c0 -8 5 -15 10 -15 6 0 10 7 10 15 0 8 -4 15 -10 15 -5 0
-10 -7 -10 -15z"/>
<path d="M5667 3954 c-3 -5 1 -15 9 -22 16 -14 18 -5 5 17 -5 7 -11 9 -14 5z"/>
<path d="M1861 3933 c-1 -6 -4 -20 -7 -30 -5 -17 -5 -17 6 0 6 10 9 23 6 30
-3 9 -5 9 -5 0z"/>
<path d="M5121 3924 c0 -11 3 -14 6 -6 3 7 2 16 -1 19 -3 4 -6 -2 -5 -13z"/>
<path d="M5140 3925 c0 -8 5 -15 10 -15 6 0 10 7 10 15 0 8 -4 15 -10 15 -5 0
-10 -7 -10 -15z"/>
<path d="M5460 3911 c0 -16 12 -41 20 -41 4 0 5 11 2 25 -4 23 -22 36 -22 16z"/>
<path d="M5254 3875 c-4 -14 -4 -29 0 -32 3 -4 6 3 6 15 0 13 6 22 15 22 8 0
15 5 15 10 0 21 -30 9 -36 -15z"/>
<path d="M5071 3876 c-8 -10 -9 -16 -1 -21 5 -3 13 1 16 10 9 22 -1 29 -15 11z"/>
<path d="M5300 3869 c0 -5 -5 -7 -11 -3 -7 4 -10 1 -7 -6 7 -23 28 -23 28 -1
0 12 -2 21 -5 21 -3 0 -5 -5 -5 -11z"/>
<path d="M5417 3873 c-4 -3 -7 -11 -7 -17 0 -6 5 -5 12 2 6 6 9 14 7 17 -3 3
-9 2 -12 -2z"/>
<path d="M5120 3850 c0 -19 3 -21 12 -12 9 9 9 15 0 24 -9 9 -12 7 -12 -12z"/>
<path d="M5101 3844 c0 -11 3 -14 6 -6 3 7 2 16 -1 19 -3 4 -6 -2 -5 -13z"/>
<path d="M5225 3850 c3 -5 8 -10 11 -10 2 0 4 5 4 10 0 6 -5 10 -11 10 -5 0
-7 -4 -4 -10z"/>
<path d="M5150 3831 c0 -6 5 -11 10 -11 6 0 10 -18 10 -40 0 -22 5 -40 11 -40
5 0 8 4 4 10 -3 5 1 25 9 44 13 31 13 34 -2 31 -10 -1 -23 2 -29 8 -9 6 -13 6
-13 -2z"/>
<path d="M5342 3823 c-10 -4 -10 -8 -1 -19 16 -20 29 -17 29 6 0 20 -5 23 -28
13z"/>
<path d="M5226 3805 c-9 -26 -7 -32 5 -12 6 10 9 21 6 23 -2 3 -7 -2 -11 -11z"/>
<path d="M3760 3770 c0 -5 5 -10 11 -10 5 0 7 5 4 10 -3 6 -8 10 -11 10 -2 0
-4 -4 -4 -10z"/>
<path d="M5072 3755 c0 -16 2 -22 5 -12 2 9 2 23 0 30 -3 6 -5 -1 -5 -18z"/>
<path d="M3912 3743 c2 -17 9 -28 18 -28 23 0 23 32 0 45 -20 11 -21 9 -18
-17z"/>
<path d="M5295 3760 c-3 -5 -1 -10 4 -10 6 0 11 5 11 10 0 6 -2 10 -4 10 -3 0
-8 -4 -11 -10z"/>
<path d="M5215 3737 c-4 -10 -5 -21 -1 -24 10 -10 18 4 13 24 -4 17 -4 17 -12
0z"/>
<path d="M3751 3711 c4 -14 10 -35 12 -46 3 -11 5 1 6 26 1 33 -3 46 -13 46
-10 0 -12 -7 -5 -26z"/>
<path d="M5272 3720 c0 -14 2 -19 5 -12 2 6 2 18 0 25 -3 6 -5 1 -5 -13z"/>
<path d="M3837 3709 c4 -13 8 -18 11 -10 2 7 -1 18 -6 23 -8 8 -9 4 -5 -13z"/>
<path d="M5120 3720 c0 -5 7 -10 16 -10 8 0 12 5 9 10 -3 6 -10 10 -16 10 -5
0 -9 -4 -9 -10z"/>
<path d="M4905 3710 c-3 -5 1 -10 10 -10 9 0 13 5 10 10 -3 6 -8 10 -10 10 -2
0 -7 -4 -10 -10z"/>
<path d="M3795 3701 c-3 -5 -1 -12 5 -16 5 -3 10 1 10 9 0 18 -6 21 -15 7z"/>
<path d="M4870 3703 c0 -6 8 -17 18 -24 16 -13 16 -13 2 6 -8 11 -16 22 -17
24 -2 2 -3 0 -3 -6z"/>
<path d="M3920 3690 c0 -5 5 -10 10 -10 6 0 10 5 10 10 0 6 -4 10 -10 10 -5 0
-10 -4 -10 -10z"/>
<path d="M3576 3681 c-4 -7 -5 -15 -2 -18 9 -9 19 4 14 18 -4 11 -6 11 -12 0z"/>
<path d="M4870 3640 c0 -5 5 -10 11 -10 5 0 7 5 4 10 -3 6 -8 10 -11 10 -2 0
-4 -4 -4 -10z"/>
<path d="M5015 3639 c-4 -6 -5 -12 -2 -15 2 -3 7 2 10 11 7 17 1 20 -8 4z"/>
<path d="M3480 3590 c0 -5 5 -10 10 -10 6 0 10 5 10 10 0 6 -4 10 -10 10 -5 0
-10 -4 -10 -10z"/>
<path d="M3907 3571 c-4 -17 -3 -21 5 -13 5 5 8 16 6 23 -3 8 -7 3 -11 -10z"/>
<path d="M4796 3575 c-3 -9 -6 -24 -5 -33 0 -9 5 -4 10 12 9 32 6 48 -5 21z"/>
<path d="M4077 3569 c7 -7 15 -10 18 -7 3 3 -2 9 -12 12 -14 6 -15 5 -6 -5z"/>
<path d="M4736 3555 c4 -8 8 -15 10 -15 2 0 4 7 4 15 0 8 -4 15 -10 15 -5 0
-7 -7 -4 -15z"/>
<path d="M4595 3510 c-3 -5 -1 -10 4 -10 6 0 11 5 11 10 0 6 -2 10 -4 10 -3 0
-8 -4 -11 -10z"/>
<path d="M4666 3511 c-4 -7 -5 -15 -2 -18 9 -9 19 4 14 18 -4 11 -6 11 -12 0z"/>
<path d="M4330 3419 c0 -5 5 -7 10 -4 6 3 10 8 10 11 0 2 -4 4 -10 4 -5 0 -10
-5 -10 -11z"/>
<path d="M2550 3216 c0 -8 4 -17 9 -20 5 -4 7 3 4 14 -6 23 -13 26 -13 6z"/>
<path d="M3986 2115 c-3 -8 -1 -15 4 -15 6 0 10 7 10 15 0 8 -2 15 -4 15 -2 0
-6 -7 -10 -15z"/>
<path d="M3920 2080 c0 -5 9 -10 20 -10 11 0 20 5 20 10 0 6 -9 10 -20 10 -11
0 -20 -4 -20 -10z"/>
<path d="M4852 1860 c0 -14 2 -19 5 -12 2 6 2 18 0 25 -3 6 -5 1 -5 -13z"/>
<path d="M8227 1474 c3 -8 0 -27 -8 -40 -10 -19 -15 -22 -19 -11 -3 10 -10 3
-21 -20 l-17 -33 27 2 c18 2 26 -2 26 -12 0 -8 -9 -15 -20 -15 -15 0 -21 -8
-23 -30 -2 -29 -2 -29 13 -11 11 14 15 16 15 5 0 -19 -35 -40 -54 -33 -11 4
-16 -4 -21 -33 -10 -56 -14 -65 -28 -60 -6 2 -12 20 -12 40 -1 20 -3 39 -7 42
-3 3 -6 -24 -5 -60 0 -45 -4 -69 -13 -75 -7 -4 -11 -17 -7 -29 3 -12 1 -24 -4
-27 -5 -3 -9 0 -9 7 0 23 -28 -11 -35 -43 -6 -25 -11 -29 -30 -24 -13 3 -27 1
-30 -4 -4 -6 -15 -8 -26 -5 -14 5 -21 0 -29 -20 -6 -15 -16 -25 -23 -22 -19 7
-49 -13 -43 -29 3 -8 2 -24 -3 -36 -7 -20 -8 -19 -14 10 -5 23 -11 30 -22 26
-8 -3 -15 -14 -15 -23 0 -14 -2 -14 -10 -1 -10 16 -11 12 -15 -45 0 -12 -7
-19 -18 -19 -12 1 -17 -6 -17 -23 0 -19 -4 -24 -15 -19 -9 3 -18 -1 -21 -9 -7
-18 -34 -20 -34 -4 0 7 8 18 18 25 15 12 14 13 -10 14 -18 0 -28 -5 -28 -15 0
-8 -10 -20 -22 -27 -23 -12 -23 -12 7 -19 l30 -6 -25 -10 c-18 -8 -27 -7 -32
1 -5 6 -8 3 -8 -10 0 -24 -36 -71 -42 -54 -4 12 -78 -38 -78 -53 0 -6 7 -18
16 -28 14 -16 13 -17 -10 -15 -20 1 -26 7 -27 26 -1 17 -3 19 -6 7 -2 -9 -9
-17 -14 -17 -6 0 -8 -8 -4 -19 8 -25 -22 -51 -37 -30 -7 10 -8 7 -5 -13 2 -15
1 -27 -2 -26 -31 3 -52 -4 -48 -16 7 -19 -18 -40 -38 -32 -9 3 -15 0 -15 -8 0
-9 -7 -12 -20 -9 -14 4 -20 0 -20 -11 0 -9 -4 -16 -9 -16 -5 0 -22 -20 -37
-44 -23 -37 -31 -43 -46 -35 -15 8 -18 6 -18 -11 0 -12 5 -18 10 -15 6 3 10
-1 10 -9 0 -14 -24 -21 -52 -17 -4 0 -15 -13 -25 -29 -9 -17 -22 -29 -28 -27
-5 2 -15 -8 -22 -22 -8 -19 -12 -21 -12 -8 -1 9 -5 17 -11 17 -5 0 -10 -8 -10
-17 0 -10 -5 -25 -11 -33 -9 -13 -10 -13 -6 2 4 12 0 16 -14 15 -14 -1 -19 -9
-20 -32 l-1 -30 -8 30 -7 30 -8 -32 c-4 -18 -12 -33 -17 -33 -6 0 -8 10 -5 23
6 21 5 21 -8 4 -7 -11 -11 -25 -8 -33 6 -17 -18 -19 -36 -1 -7 6 -11 8 -10 2
4 -15 -12 -59 -25 -67 -18 -12 -26 -9 -20 7 4 8 1 15 -5 15 -6 0 -11 -7 -11
-16 0 -10 -5 -14 -15 -10 -11 4 -19 -3 -25 -20 -6 -14 -10 -27 -10 -30 0 -2
356 -4 790 -4 l790 0 0 707 c0 706 0 707 -21 729 l-21 23 21 -6 c16 -4 21 -1
21 13 0 9 -3 15 -6 11 -3 -3 -17 -2 -30 3 -19 7 -22 6 -17 -6z m20 -80 c-9 -9
-28 6 -21 18 4 6 10 6 17 -1 6 -6 8 -13 4 -17z m-327 -423 c0 -6 -4 -13 -10
-16 -5 -3 -10 1 -10 9 0 9 5 16 10 16 6 0 10 -4 10 -9z m-123 -98 c-3 -10 -5
-2 -5 17 0 19 2 27 5 18 2 -10 2 -26 0 -35z"/>
<path d="M8147 1324 c-4 -4 -7 -14 -7 -23 0 -11 3 -12 11 -4 6 6 10 16 7 23
-2 6 -7 8 -11 4z"/>
<path d="M5266 1301 c-4 -7 -5 -15 -2 -18 9 -9 19 4 14 18 -4 11 -6 11 -12 0z"/>
<path d="M8012 1230 c0 -14 2 -19 5 -12 2 6 2 18 0 25 -3 6 -5 1 -5 -13z"/>
<path d="M5300 1180 c0 -5 5 -10 10 -10 6 0 10 5 10 10 0 6 -4 10 -10 10 -5 0
-10 -4 -10 -10z"/>
<path d="M8011 1174 c0 -11 3 -14 6 -6 3 7 2 16 -1 19 -3 4 -6 -2 -5 -13z"/>
<path d="M7972 1140 c0 -14 2 -19 5 -12 2 6 2 18 0 25 -3 6 -5 1 -5 -13z"/>
<path d="M8000 1109 c0 -5 5 -7 10 -4 6 3 10 8 10 11 0 2 -4 4 -10 4 -5 0 -10
-5 -10 -11z"/>
<path d="M5411 1074 c0 -11 3 -14 6 -6 3 7 2 16 -1 19 -3 4 -6 -2 -5 -13z"/>
<path d="M7977 1070 c-26 -31 -20 -52 9 -32 13 8 25 52 15 52 -3 0 -14 -9 -24
-20z"/>
<path d="M5326 966 c3 -21 11 -47 17 -57 16 -25 0 -37 -18 -13 -13 17 -14 17
-15 2 0 -10 4 -18 10 -18 6 0 7 -18 4 -44 -5 -32 -2 -50 10 -67 l16 -23 0 22
c0 12 -4 22 -10 22 -5 0 -10 5 -10 10 0 6 9 10 20 10 21 0 28 24 10 35 -5 3
-10 14 -10 23 0 10 3 13 10 6 12 -12 32 -96 35 -152 3 -50 9 -59 30 -42 12 10
15 10 16 -1 0 -8 4 -5 8 6 5 11 4 31 -1 44 -4 13 -6 40 -2 60 4 27 3 32 -5 21
-6 -8 -11 -23 -11 -32 0 -25 -17 -22 -26 4 -4 13 -2 24 5 26 13 4 15 62 2 62
-5 0 -11 -5 -13 -11 -7 -21 -40 43 -42 82 -2 37 -15 67 -17 38 0 -9 -4 -6 -10
6 -7 15 -8 10 -3 -19z m101 -253 c-3 -10 -5 -4 -5 12 0 17 2 24 5 18 2 -7 2
-21 0 -30z"/>
<path d="M7771 984 c0 -11 3 -14 6 -6 3 7 2 16 -1 19 -3 4 -6 -2 -5 -13z"/>
<path d="M5492 820 c0 -14 2 -19 5 -12 2 6 2 18 0 25 -3 6 -5 1 -5 -13z"/>
<path d="M5461 774 c0 -11 3 -14 6 -6 3 7 2 16 -1 19 -3 4 -6 -2 -5 -13z"/>
<path d="M5258 681 c-3 -19 0 -32 8 -35 10 -4 12 3 7 27 -8 42 -10 43 -15 8z"/>
<path d="M5072 675 c0 -16 4 -43 8 -60 l8 -30 0 35 c0 19 -4 46 -8 60 -8 24
-8 24 -8 -5z"/>
<path d="M5323 673 c-13 -2 -23 -9 -23 -14 0 -15 63 -6 68 9 4 12 -4 13 -45 5z"/>
<path d="M5293 605 c0 -14 3 -25 8 -25 5 0 9 9 9 19 0 11 -4 22 -9 25 -5 3 -8
-6 -8 -19z"/>
<path d="M5330 610 c0 -19 3 -21 12 -12 9 9 9 15 0 24 -9 9 -12 7 -12 -12z"/>
<path d="M5155 600 c3 -5 8 -10 11 -10 2 0 4 5 4 10 0 6 -5 10 -11 10 -5 0 -7
-4 -4 -10z"/>
<path d="M7370 601 c0 -5 5 -13 10 -16 6 -3 10 -2 10 4 0 5 -4 13 -10 16 -5 3
-10 2 -10 -4z"/>
<path d="M5460 564 c0 -8 5 -12 10 -9 6 3 10 10 10 16 0 5 -4 9 -10 9 -5 0
-10 -7 -10 -16z"/>
<path d="M4860 561 c0 -9 23 -21 48 -27 6 -1 12 6 12 17 0 14 -7 19 -30 19
-16 0 -30 -4 -30 -9z"/>
<path d="M5060 559 c0 -8 5 -21 10 -29 8 -12 9 -10 7 7 -4 26 -17 43 -17 22z"/>
<path d="M5095 520 c-3 -5 -1 -10 4 -10 6 0 11 5 11 10 0 6 -2 10 -4 10 -3 0
-8 -4 -11 -10z"/>
<path d="M4676 481 c-4 -7 -5 -15 -2 -18 9 -9 19 4 14 18 -4 11 -6 11 -12 0z"/>
<path d="M4881 474 c0 -11 3 -14 6 -6 3 7 2 16 -1 19 -3 4 -6 -2 -5 -13z"/>
<path d="M4665 420 c-3 -5 -1 -10 4 -10 6 0 11 5 11 10 0 6 -2 10 -4 10 -3 0
-8 -4 -11 -10z"/>
<path d="M4206 277 c3 -10 9 -15 12 -12 3 3 0 11 -7 18 -10 9 -11 8 -5 -6z"/>
<path d="M4391 234 c0 -11 3 -14 6 -6 3 7 2 16 -1 19 -3 4 -6 -2 -5 -13z"/>
</g>
</svg>
